<?xml version="1.0" encoding="utf-8"?>
<!-- Generator: Adobe Illustrator 25.0.0, SVG Export Plug-In . SVG Version: 6.00 Build 0)  -->
<svg version="1.1" id="Слой_1" xmlns="http://www.w3.org/2000/svg" xmlns:xlink="http://www.w3.org/1999/xlink" x="0px" y="0px"
	 viewBox="0 0 1457 862" style="enable-background:new 0 0 1457 862;" xml:space="preserve">
<style type="text/css">
	.st0{opacity:0.2;clip-path:url(#SVGID_2_);}
	.st1{opacity:0.7;fill:#FFFFFF;enable-background:new    ;}
	.st2{fill:#FFFFFF;}
</style>
<g>
	<g>
		<defs>
			<rect id="SVGID_1_" width="1457" height="862"/>
		</defs>
		<clipPath id="SVGID_2_">
			<use xlink:href="#SVGID_1_"  style="overflow:visible;"/>
		</clipPath>
		<g class="st0">
			<path class="st1" d="M0,71.1c14.6-5.7,29.1-11.9,39.3-21.8c6.2-5.9,10.7-12.9,13.2-20.6c2.9-9.2,2.6-18.3,2.2-27.8
				c0-0.3,0-0.6,0-0.9h-1.9c0,0.3,0,0.7,0,1c0.3,9.4,0.7,18.3-2.2,27.4c-2.4,7.4-6.8,14.2-12.8,19.9C28.1,57.8,14.1,63.9,0,69.4
				V71.1z"/>
			<path class="st1" d="M0,88.7c5.9-2.5,12.2-4.8,18.7-7.2c16.1-5.8,32.7-11.8,44.1-22.1c6.1-5.3,10.8-11.8,13.8-18.9
				c2.9-8.3,4.3-17,4.1-25.8C80.9,9.9,81.1,5,81.9,0H80c-0.8,5-0.8,9.9-1.1,14.7c0.2,8.6-1.2,17.1-4,25.3
				c-2.8,6.9-7.3,13.2-13.3,18.3C50.3,68.4,33.9,74.3,18,80c-6,2.2-12.1,4.5-18,7V88.7z"/>
			<path class="st1" d="M0,108.1l6-2.9l9.4-4.7c8.9-4.1,18.1-7.7,27.6-10.7c15.7-5.3,31.8-11,43.4-20.3c6.1-4.8,10.9-10.7,14.3-17.3
				c3.4-7.6,5.4-15.6,6-23.7c1.2-9.2,2.5-18.7,8.3-28.5h-2c-4.6,9-7.4,18.6-8.1,28.4c-0.6,8-2.6,15.8-5.9,23.3
				c-3.2,6.3-7.9,12-13.8,16.7c-11.3,9.2-27.3,14.7-42.8,20c-9.6,3-18.9,6.6-27.8,10.8l-9.4,4.7l-5,2.5L0,108.1z"/>
			<path class="st1" d="M0,126.4c13.4-6.2,26.8-12.4,40.4-18.6c8.7-3.8,17.7-7,27-9.8c15.2-4.7,31-9.9,42.6-18.4
				c6-4.3,11-9.6,14.7-15.5c3.9-6.9,6.6-14.2,8.1-21.8c2.3-9.5,4.8-19.2,13.1-29.5c4-4.8,8.6-9.1,13.8-12.9h-2.9
				c-4.7,3.5-8.9,7.6-12.6,11.9c-8.6,10.4-11,20.4-13.4,30.1c-1.4,7.3-4,14.5-7.8,21.1c-3.6,5.8-8.4,10.9-14.2,15.1
				c-11.3,8.4-26.9,13.3-42,18.2c-9.3,2.8-18.4,6-27.2,9.8c-13.3,6-26.5,12.1-39.6,18.2L0,126.4L0,126.4z"/>
			<path class="st1" d="M0,142.9l10.2-4.4l12.6-5.5c16.2-6.8,29.8-12.6,42.6-17.9c8.6-3.4,17.4-6.3,26.4-8.8
				c14.8-4.4,30.1-8.9,41.8-16.6c5.9-3.8,11-8.5,15.1-13.9c4.4-6.1,7.8-12.8,10.1-19.7c3-9.5,8.1-18.3,15.1-26.1
				c15.4-15.7,37-26,60.6-28.7c2.6-0.2,5.6-0.5,8.6-0.7c18.5-0.8,37,0,55.2,2.2c24.5,2.5,47.9,4.9,81.1-3h-7.6
				c-29.2,5.9-50.8,3.7-73.3,1.4c-4.7-0.5-9.4-1-14.2-1.4h-51.9c-23.3,3-44.6,13.3-59.8,29c-7.1,7.9-12.3,16.9-15.4,26.6
				c-2.2,6.8-5.6,13.3-9.9,19.3c-4.1,5.2-9.1,9.8-14.9,13.5c-11.4,7.6-26.6,12.1-41.3,16.4c-9,2.5-17.9,5.4-26.5,8.8
				c-12.9,5.3-26.4,11-42.6,18l-12.6,5.5l-9.4,4L0,142.9z"/>
			<path class="st1" d="M0,158.4c13.3-5.9,27-11.3,40.3-16.6l8.3-3.2c12.8-5.1,26.4-10.4,41.8-16.2c8.3-3,16.9-5.6,25.5-7.8
				c14.5-3.9,29.4-8,41.1-14.8c5.9-3.4,11.2-7.5,15.7-12.1c4.9-5.4,9-11.4,12.3-17.8c4.2-8.3,9.9-16,16.9-22.7
				c16-14.2,36.9-23.6,59.4-26.8c2.6-0.3,5.5-0.7,8.3-1c17.6-1.6,35.4-2.2,53.1-1.9c28,0.1,54.4,0.3,97.1-11
				c8-2.1,15.7-4.3,23.3-6.4h-6c-5.8,1.6-11.7,3.3-17.9,4.9c-42.5,11.2-68.8,11-96.6,11c-17.8-0.4-35.6,0.3-53.4,1.9
				c-2.8,0.3-5.7,0.7-8.3,1c-23,3.3-44.3,12.9-60.6,27.4c-7.2,6.8-13,14.6-17.2,23.1c-3.2,6.2-7.2,12.1-12,17.4
				c-4.4,4.6-9.5,8.5-15.2,11.8c-11.5,6.7-26.4,10.8-40.7,14.7c-8.7,2.2-17.3,4.8-25.7,7.8c-15.4,5.7-29.1,11-41.8,16.1l-8.3,3.3
				c-12.9,5-26.4,10.4-39.4,16.1V158.4z"/>
			<path class="st1" d="M1457,15.7c-10.8-4.2-20.9-9.5-30.3-15.7h-3.1c10.2,7.1,21.4,13,33.3,17.5L1457,15.7z"/>
			<path class="st1" d="M638.4,13.7c22.9,7.4,47.4,10.5,71.8,9.1C742.5,21.1,763.8,11,785.5,0h-3.7c-20.6,10.4-41.2,19.6-71.7,21.2
				c-24.2,1.4-48.4-1.7-71.1-9c-9.7-3.1-19.4-6.7-28.8-10.2l-5.4-2h-4.7l9.4,3.5C618.9,7,628.7,10.6,638.4,13.7z"/>
			<path class="st1" d="M0,175.3c21.3-12.2,45.5-20.9,69-29.4l5.4-1.9c12.1-4.4,25.5-9.1,40.9-14.3c7.7-2.7,16.1-4.7,24.9-6.8
				c14-3.5,28.5-7,40.4-13c5.8-2.9,11.2-6.5,16.1-10.5c5.6-4.8,10.5-10.1,14.8-15.9c5.2-7,11.4-13.5,18.5-19.2
				c16.7-12.6,36.8-21.2,58.5-25.1l1.1-0.2c2.3-0.4,4.6-0.8,6.8-1.1c20.6-3,37.1-4.7,53.2-6.3c30.5-2.7,60.8-7.1,90.6-13l2.7-0.5
				c45.3-9,81.1-16.1,127.5-5.5c15.7,3.6,31.7,10,48.4,16.7c10.3,4.2,21.1,8.5,31.7,12c22,7.5,45.7,10.8,69.3,9.8
				c34.6-1.6,54.5-13.6,75.6-26.2c13.2-8.5,27.5-15.7,42.6-21.3c3.7-1.3,7.6-2.4,11.5-3.2c0.8-0.2,1.5-0.3,2.3-0.4h-7.4
				c-2.3,0.6-4.7,1.3-7.1,2.1C822,7.8,807.5,15,794.2,23.7c-20.8,12.5-40.5,24.3-74.6,25.9c-23.4,1.1-46.7-2.2-68.5-9.6
				c-10.6-3.6-21.3-7.9-31.5-12c-16.8-6.7-32.7-13.1-48.8-16.7C523.9,0.6,488,7.7,442.4,16.8l-2.7,0.5c-29.8,5.9-60,10.2-90.5,12.9
				c-16,1.6-32.6,3.3-53.3,6.4c-2.2,0.3-4.5,0.7-6.9,1.1l-1.1,0.2c-22,3.9-42.5,12.7-59.4,25.5c-7.2,5.8-13.6,12.4-18.9,19.5
				c-4.1,5.7-9,10.9-14.5,15.6c-4.8,3.9-10.1,7.4-15.7,10.2c-11.6,5.9-26,9.4-39.9,12.8c-8.5,2.1-17.3,4.2-25,6.8
				c-15.5,5.2-28.9,9.9-40.9,14.3l-5.4,1.9c-23.2,8.4-47.1,17-68.3,28.9L0,175.3z"/>
			<path class="st1" d="M1457,30c-3.4-0.8-6.8-1.7-10.1-2.7c-19.4-5.8-37.2-15.1-52.1-27.4h-2.7c15.4,13,33.9,22.8,54.2,28.8
				c3.5,1.1,7.1,2,10.7,2.7V30z"/>
			<path class="st1" d="M0,199.7c6.5-6.2,13.6-11.9,21.2-17c22.2-14.9,49.5-23.6,75.8-32.3l3.1-1c11.7-3.8,24.8-7.9,40.2-12.4
				c7.6-2.2,15.7-4,24.3-5.9c13.6-2.5,26.8-6.3,39.5-11.1c5.8-2.5,11.3-5.4,16.5-8.8c6.3-4.2,12.2-8.9,17.6-14.1
				c6-5.7,12.6-11,19.6-15.7c17.3-10.9,36.8-18.8,57.5-23.2l2.6-0.5l5-1.1c14.8-3,27.4-5.7,39.5-8.2c32.2-7.5,64.9-13.4,97.8-17.6
				c44.1-5.7,80.7-6.4,126,7.8c13.9,4.7,27.5,10,40.7,16.1c11.5,5,23.4,10.3,35.4,14.5c21.1,7.7,43.9,11.2,66.7,10.4
				c35.2-1.3,53.2-14.2,72.2-27.8c11.2-8.1,22.8-16.4,38.6-22.6c3.5-1.5,7.2-2.7,10.9-3.6c16.4-4,32.8-4.4,47.2-4.8
				s27.9-0.8,39.1-4.5c9.4-3.1,18-6.3,27.1-9.8c5.6-2.1,11.4-4.2,17.4-6.4h-4.8c-4.6,1.6-9,3.3-13.4,4.9c-9.1,3.4-17.7,6.6-27,9.7
				c-10.8,3.6-24.3,4-38.5,4.4S866.7,20,850,24c-3.8,1-7.4,2.2-11,3.6c-16,6.4-27.7,14.7-39,22.8c-18.9,13.5-36.5,26.1-71.1,27.4
				c-22.6,0.8-45.1-2.7-66-10.3c-12-4.2-23.8-9.5-35.3-14.5c-13.3-6.1-26.9-11.5-40.9-16.2c-45.7-14.1-82.5-13.4-126.8-7.7
				c-33,4.2-65.7,10.1-98,17.6c-12,2.7-24.6,5.5-39.5,8.2l-5,1.1l-2.6,0.5c-21,4.5-40.7,12.5-58.1,23.6c-7,4.9-13.7,10.2-19.7,16
				c-5.3,5.1-11.1,9.7-17.4,13.9c-5.1,3.3-10.6,6.2-16.3,8.6c-12.6,4.8-25.7,8.5-39.2,11c-8.2,1.8-16.8,3.7-24.4,5.9
				c-15.3,4.5-28.3,8.6-40.2,12.4l-3.1,1c-26.5,8.6-53.9,17.5-76.3,32.5c-7.2,4.9-13.9,10.2-20.1,16L0,199.7L0,199.7z"/>
			<path class="st1" d="M1457,41c-9.7-1.2-19.3-2.9-28.7-5.2c-24.8-6.7-47-19.1-64.4-35.8h-2.5c17.8,17.5,40.8,30.4,66.4,37.4
				c9.6,2.3,19.4,4.1,29.3,5.3V41H1457z"/>
			<path class="st1" d="M1217.6,3.9c4.2-1,8.3-2.3,12.3-3.9h-4.8c-2.6,0.9-5.3,1.7-8.1,2.3c-21.9,5.2-38.4,2.2-54.8-2.3h-6
				C1174.8,5.4,1192.8,9.8,1217.6,3.9z"/>
			<path class="st1" d="M0,235.6c2.7-2.2,5.3-4.5,7.8-7c4.1-4.1,8.1-8.8,12.3-13.8c2.5-2.9,5-5.9,7.6-8.8
				c6.4-7.4,13.7-14.1,21.9-20.1c21.4-15.3,48.6-23.1,75.1-30.7l1.4-0.4c11.3-3.3,24.2-6.7,39.3-10.5c7.5-1.9,15.4-3.4,23.7-5
				c13.1-2.2,26.1-5.3,38.6-9.3c5.8-2,11.5-4.4,17-7.1c7.5-3.8,14.7-8,21.5-12.5c6-3.8,12.1-7.8,19.7-11.8
				c17.7-9.2,36.7-16.4,56.4-21.4l3.7-1l3.5-0.9c15.7-4,28.7-8.5,41.4-12.9c25.6-8.8,49.9-17.2,89.5-19.4
				c43-2.4,78.3,3.7,121.9,21.2c10.3,4.2,20.7,9.2,31.5,14.4c13.1,6.3,26.6,12.8,40.4,18c20.2,7.8,42.1,11.5,64.2,11
				c35.7-1.1,51.7-14.8,68.6-29.3c9.9-8.5,20.1-17.3,34.9-24c3.3-1.5,6.7-2.8,10.3-3.7c13.6-3.3,27.6-5.1,41.7-5.5
				c15.3-0.9,29.8-1.8,41.3-7.1c8.5-4,16.3-8.2,24.6-12.6C977.3,15.5,995.9,7,1015.2,0h-4.9c-17.9,6.8-35.1,14.8-51.4,24.1
				c-8.2,4.4-16,8.6-24.5,12.6c-11.1,5.2-25.4,6.1-40.5,7c-14.2,0.3-28.4,2.2-42.1,5.5c-3.6,1-7.2,2.3-10.6,3.8
				c-15,6.8-25.2,15.7-35.3,24.3c-16.6,14.3-32.3,27.8-67.4,28.8c-21.8,0.5-43.5-3.2-63.4-11c-13.8-5.2-27.3-11.7-40.3-17.9
				c-11-5.3-21.3-10.3-31.7-14.5C559.3,45,523.7,38.8,480.3,41.2c-39.9,2.2-64.3,10.6-90,19.5c-12.6,4.4-25.7,8.9-41.3,12.9
				l-3.5,0.9l-3.7,1c-19.9,5.1-39,12.3-56.9,21.6c-7.7,4.1-13.9,8.1-19.8,11.9c-6.8,4.6-13.9,8.7-21.4,12.5c-5.4,2.6-11,5-16.8,7
				c-12.5,3.9-25.3,7-38.4,9.2c-8.4,1.6-16.3,3.1-23.8,5c-15.2,3.8-28.1,7.2-39.4,10.5l-1.4,0.4c-26.6,7.7-54.1,15.6-75.6,31
				c-8.2,6-15.6,12.8-22,20.3c-2.6,3-5.2,6-7.6,8.9c-4.2,5-8.2,9.7-12.2,13.7c-2.2,2.2-4.3,4.1-6.3,5.8L0,235.6z"/>
			<path class="st1" d="M1457,49.8c-3.9-0.4-7.8-0.7-11.6-1c-12-0.7-23.9-2.2-35.7-4.5c-24.3-5.5-47.7-17.8-69.6-36.9
				c-2.1-1.9-4.2-3.8-6.3-5.6c-0.7-0.6-1.3-1.2-1.9-1.8h-2.6c1.1,1,2.1,1.9,3.1,2.9c2.1,1.9,4.2,3.8,6.3,5.7
				c22,19.2,45.8,31.8,70.4,37.3c11.8,2.3,23.9,3.9,36,4.6c3.9,0.3,7.8,0.6,11.8,1L1457,49.8z"/>
			<path class="st1" d="M0,273.7l4.5-3.5c7.7-5.6,15-11.7,21.7-18.3c5.6-5.7,10.6-11.8,15.1-18.1c2.4-3.3,4.6-6.7,7.1-10.4
				c3.1-4.5,6.1-9.2,9.4-13.7c5.5-7.6,12.2-14.5,19.9-20.5c20.3-15.7,47.6-22.5,73.9-29c11.3-2.7,23.9-5.5,38.5-8.6
				c7.5-1.5,15.3-2.7,23.6-4.1c12.6-1.8,25.1-4.3,37.3-7.3c5.6-1.5,11.2-3.2,17.4-5.5c10.4-3.6,19.2-7.6,28.6-11.8
				c5.3-2.4,10.7-4.8,16.7-7.3c18.1-7.3,36.7-13.9,55.6-19.5l5.4-1.7l1.5-0.5c13.6-4.7,26.8-10.3,39.5-16.7
				c24.3-11.8,47.2-22.9,85-22.1c42.7,0.9,76.8,14,117.8,34.9c6.7,3.4,13.3,7,20.4,11c15.2,8.7,31.1,16.5,47.5,23.5
				c19.2,8,40.3,12,61.6,11.7c36.2-0.8,50.1-15.4,64.9-30.8c8.6-9,17.4-18.3,31.2-25.4c3.1-1.6,6.4-2.9,9.8-4
				c12-3.3,24.3-5.3,36.9-6c16-1.4,31.1-2.7,42.7-9.9c8.3-5.1,15.7-10.6,23.7-16.4c16.2-11.8,33.1-24.1,58-33.3
				c26.4-9.8,55.3-11.5,90.8-5.2c11.3,2.3,22.2,5.7,32.5,10.2c18.6,7.4,36.2,14.3,61.8,8.4c8.3-2,16.2-5.2,23.3-9.4l4.7-2.7
				c7.4-4.5,15.4-8.4,23.7-11.5h-4.5c-6.9,3-13.6,6.4-20,10.2l-4.7,2.7c-7,4.1-14.8,7.3-22.9,9.3c-25.2,5.8-42.4-1.1-60.7-8.2
				c-10.5-4.6-21.5-8-32.9-10.4c-9.2-1.6-18.4-2.8-27.8-3.3h-23c-14.2,0.8-28.1,3.7-41.1,8.5c-25.2,9.4-42.2,21.7-58.6,33.7
				c-7.9,5.7-15.3,11.2-23.6,16.2c-11.1,6.9-26,8.2-41.8,9.6c-12.7,0.7-25.2,2.7-37.3,6c-3.5,1.1-6.8,2.5-10,4.1
				c-14,7.3-23,16.7-31.7,25.8c-14.5,15.2-28.2,29.5-63.5,30.1c-21,0.3-41.8-3.7-60.8-11.5c-16.4-6.8-32.2-14.6-47.4-23.2
				c-7.1-3.8-13.7-7.5-20.4-11c-41.3-21-75.6-34.2-118.6-35.1c-38.1-0.8-61.3,10.4-85.9,22.3c-12.6,6.4-25.7,12-39.2,16.7l-1.5,0.5
				c-1.8,0.6-3.5,1.2-5.4,1.7c-18.9,5.7-37.5,12.3-55.6,19.6c-6,2.5-11.4,4.9-16.7,7.3c-9.2,4.3-18.7,8.2-28.3,11.7
				c-6.3,2.2-11.7,3.9-17.3,5.5c-12.2,3-24.6,5.4-37.1,7.3c-8.3,1.3-16.1,2.6-23.7,4.2c-14.6,3-27.2,5.8-38.6,8.6
				c-26.6,6.6-54,13.4-74.7,29.3c-7.8,6.1-14.5,13.1-20.1,20.8c-3.4,4.5-6.5,9.3-9.4,13.7c-2.6,3.7-4.9,7.2-7.3,10.5
				c-4.5,6.3-9.5,12.3-15,17.9c-6.7,6.5-13.9,12.5-21.6,18.1l-3.1,2.5L0,273.7z"/>
			<path class="st1" d="M1457,58.2c-2.9-0.5-5.9-0.9-9.1-1.3c-7.7-0.8-15.8-1.1-23.3-1.3c-11.2-0.1-22.5-1.1-33.5-2.7
				c-28.5-5.2-52.2-20.2-69.6-32.9l-5.2-3.8c-8-6.4-17-11.9-26.6-16.3h-4.6c0.9,0.3,1.9,0.6,2.8,1c9.9,4.4,19.1,9.9,27.3,16.4
				l5.2,3.8c17.6,12.7,41.4,27.9,70.4,33.1c11.2,1.7,22.5,2.6,33.9,2.7c7.6,0.3,15.5,0.6,23.1,1.4c3.2,0.3,6.3,0.8,9.5,1.3
				L1457,58.2z"/>
			<path class="st1" d="M1457,69.9c-4.1-2.1-8.5-3.6-13.1-4.7c-5.3-1.2-10.7-2-16.2-2.4c-7.8-0.5-15.7-0.4-23.6-0.4
				c-10.5,0.4-21.1,0-31.5-1.2c-25-3.5-46.2-15-69.7-28.6l-1.8-1c-10.3-6.5-21.5-12-33.3-16.2c-24.1-7.8-39.4,1.9-55.5,12.2
				c-2.5,1.6-5.1,3.3-7.7,4.8c-6.5,4.2-13.9,7.3-21.7,9.2c-23.8,5.5-39.8-2.7-56.7-11.2c-10.1-5.6-21.1-10-32.6-13
				c-34.9-8.2-63-6.8-88.2,4.3C983,31.5,967.6,46,953,60.1c-7.2,6.9-14.7,14-22.8,20.3c-11,8.7-26.3,10.5-42.4,12.4
				c-11.3,0.9-22.5,3.1-33.2,6.5c-3.3,1.2-6.5,2.7-9.4,4.4c-13.2,7.8-20.8,17.8-28.3,27.4c-12.3,16-23.9,31.1-59.5,31.5
				c-20.3,0-40.2-4.2-58.3-12.2c-20.7-8.7-39.9-20.9-58.4-32.7l-5.3-3.3c-35.9-22.7-69.9-44.2-114.5-48.8
				c-36.5-3.8-58.7,10.3-82.2,25.3c-11.4,7.8-23.7,14.6-36.7,20.2c-2.1,0.9-4.3,1.7-6.3,2.5c-17,6.2-36,12.1-54.3,17.7
				c-16.8,5.2-32.1,9.8-49.2,13.7c-6.5,1.5-12.3,2.7-17.8,3.7c-11.6,2.2-23.8,3.8-35.6,5.3c-8.3,1.1-16.2,2.1-23.8,3.3
				c-15.2,2.4-27.2,4.5-37.8,6.7c-23.4,4.8-52.6,10.8-72.4,27.2c-7.3,6.2-13.4,13.4-18,21.3c-4,6.5-7.3,13.4-10.5,20
				c-0.9,1.9-1.9,3.9-2.8,5.8c-3.5,7.4-7.6,14.7-12.2,21.6c-5.4,7.8-11.7,15.1-18.9,21.7C30.2,293.1,15.9,302.8,0,310.1v1.8
				c16.4-7.4,31.1-17.3,43.6-29.2c7.3-6.7,13.7-14,19.1-21.9c4.7-7.1,8.8-14.4,12.3-21.9c0.9-1.8,1.9-3.7,2.8-5.8
				c3.1-6.6,6.5-13.5,10.4-19.9c4.6-7.8,10.5-14.8,17.7-20.9c19.4-16.1,48.3-21.9,71.5-26.8c10.6-2.2,22.6-4.3,37.8-6.7
				c7.7-1.2,15.5-2.2,23.8-3.3c11.8-1.5,24-3.2,35.7-5.5c5.5-1,11.4-2.2,17.9-3.7c17.2-3.9,32.5-8.5,49.3-13.7
				c18.4-5.6,37.4-11.5,54.4-17.8c2.2-0.8,4.4-1.7,6.5-2.5c13.1-5.7,25.5-12.5,37-20.3c23.1-14.8,45.1-28.7,80.8-25
				c44.1,4.6,77.9,25.9,113.7,48.5l5.3,3.6c18.6,11.8,37.8,24,58.7,32.9c18.3,8.1,38.5,12.4,59.1,12.3c36.6-0.4,48.4-15.8,61-32.2
				c7.3-9.5,14.9-19.3,27.7-27c2.9-1.7,5.9-3.1,9.1-4.2c10.5-3.3,21.5-5.4,32.7-6.4c16.4-2,32-3.8,43.4-12.8
				c8.2-6.4,15.7-13.5,22.9-20.4c14.6-14,29.8-28.4,51.9-38.1c24.9-11,52.6-12.2,87-4.2c11.3,3,22.1,7.3,32.1,12.8
				c17.2,8.7,33.5,16.8,58.1,11.3c8-1.9,15.6-5.1,22.3-9.4c2.6-1.6,5.2-3.2,7.8-4.9c15.7-10,30.6-19.5,53.7-12
				c11.7,4.2,22.7,9.6,32.8,16.1l1.7,1c23.5,13.7,45.1,25.4,70.3,28.9c10.6,1.2,21.3,1.6,31.9,1.2c7.8,0,15.8-0.2,23.5,0.4
				c5.3,0.4,10.6,1.1,15.7,2.3c4.8,1.1,9.3,2.9,13.6,5.1L1457,69.9z"/>
			<path class="st1" d="M1457,92.4c-8.7-10.5-18.9-18.9-33.7-21.9c-12.9-2.7-26.4-1.9-39.4-1c-9.9,0.9-19.9,1-29.9,0.4
				c-21.8-2-41.7-11.4-60.9-20.4c-14.6-7-29.7-14.2-45.9-18.2c-23.8-5.9-37.1,3.9-51.2,14.2c-8.8,6.5-17.9,13.2-30.1,15.9
				c-22.6,4.9-37.3-4.2-52.8-13.9c-9.4-6-19.5-12.1-32-15.8c-34.3-10.1-60.4-9.1-84.7,3.3c-19.6,10.1-33.1,26.6-46.1,42.5
				c-6.8,8.7-14.2,17-22,25c-10.8,10.4-26.9,12.8-42.5,15.2c-13.6,2.1-27.7,4.2-38.5,11.5c-12.3,8.2-18.7,18.8-24.8,29
				c-10.6,17.5-19.7,32.6-55.5,32.7h-0.3c-43.8,0-82.6-25.6-114.9-50.6l-7.2-5.6c-30.9-24.1-63-49.1-103.1-56.8
				c-35.1-6.8-56.3,10.3-78.7,28.4c-10.6,8.6-21.5,17.5-34.1,23.6C387,150,324.8,156.1,270.2,161.5c-24.2,2.4-47.1,4.6-67.3,7.9
				c-28.1,4.5-52.8,9.6-70,25c-14.5,13.1-20.2,31-25.8,48.4c-2.6,8.9-5.8,17.6-9.6,26.1c-21,44.2-56.7,56.4-97.6,60v1.6
				c41.6-3.7,77.9-16,99.3-61.1c3.8-8.6,7.1-17.4,9.7-26.3c5.5-17.2,11.1-34.9,25.4-47.8c16.8-15.1,41.2-20.1,69-24.7
				c20.1-3.3,43-5.5,67.1-7.9c54.9-5.5,117.1-11.5,159.1-31.9c12.8-6.2,23.8-15.1,34.6-23.8c22-17.8,42.7-34.6,76.9-28
				c39.8,7.7,71.6,32.5,102.3,56.5l7.2,5.6c32.5,25.3,71.7,51,116.1,51h0.4c36.9,0,46.7-16.4,57.1-33.5
				c6.1-10.1,12.3-20.4,24.3-28.5c10.5-7.1,24.3-9.2,37.8-11.2c15.9-2.4,32.3-4.9,43.6-15.8c8-8,15.4-16.4,22.3-25.2
				c12.9-15.8,26.3-32.2,45.5-42.1c23.4-12,49.1-13,82.9-3.1c11.3,3.8,22,9,31.5,15.6c15.9,9.9,31,19.2,54.4,14.2
				c12.6-2.7,21.8-9.6,30.8-16.2c13.6-10.1,26.6-19.6,49.4-13.9c15.9,3.9,31,11,45.5,17.9c19.4,9.2,39.4,18.6,61.5,20.7
				c10.1,0.6,20.2,0.5,30.2-0.4c12.9-0.8,26.2-1.6,38.9,1c15.2,3.2,25.4,12.1,34.2,23.2v-2.4H1457z"/>
			<path class="st1" d="M1457,116.5c-3.2-3.2-6.8-6.1-10.6-8.8c-7.2-5.1-15.6-8.9-24.5-11.2c-12.7-2.6-25.8-3.9-38.8-3.9
				c-9.6-0.1-19.3-0.8-28.8-2.1c-20-3.2-37.5-12.5-56-22.5c-14.9-8-30.3-16.2-47.2-21c-24.4-6.8-39.1,3-54.6,13.3
				c-8.6,5.7-17.5,11.6-28.3,14.7c-3.9,1.1-8,1.9-12.1,2.4c-14,1.3-23.8-3.5-35.2-9c-2.5-1.2-5-2.5-7.8-3.7
				c-8-3.8-16.4-6.8-25.2-8.9c-20.3-4.6-36.4-5.8-50.6-3.8c-11.9,1.8-23.1,5.9-32.9,12c-9.1,5.8-17,12.8-23.6,20.7
				c-4.9,5.5-9.4,11.7-14.1,17.6c-8.4,11-17.1,22.4-27.8,31.5c-12.1,10.4-28.9,11.5-45.2,12.6c-12.8,0.8-24.9,1.7-34.6,6.7
				c-11.8,6.1-18.5,14.5-25,22.7c-11.2,14.2-21.7,27.4-56.9,29.3c-3.5,0.2-7.2,0.2-10.8,0.2c-41.1-0.7-77.2-21.9-107.1-42.5
				c-3.9-2.7-7.7-5.5-11.7-8.2l-6.1-4.3c-27.2-19.2-58-40.9-96.4-47.7c-33.5-5.9-54.2,9.9-76,26.3c-10,8.2-21,15.4-32.9,21.4
				c-40.9,19-101.3,24.9-154.3,30.1c-22,2.1-43.1,4.2-61.9,7c-22,3.3-49.2,7.5-67.3,22.4c-1,0.8-2,1.7-3,2.7
				c-12.2,11.5-18,26.6-23.6,41.1c-2.9,7.8-6.2,15.6-10.1,23.1c-10.2,18.8-23.8,32.3-41.5,41.1c-21.9,11-47.2,13.7-74.5,14.9v1.5
				c26.8-1.3,53.5-4.2,75.6-15.1c18.1-9,32-22.6,42.3-41.8c3.9-7.6,7.3-15.3,10.1-23.3c5.4-14.4,11.1-29.4,23.1-40.6
				c0.9-0.8,1.9-1.7,2.9-2.5c17.7-14.6,44.7-18.7,66.3-21.9c18.7-2.7,39.6-4.8,61.8-7c53.3-5.2,113.6-11,155.1-30.1
				c12-6.1,23.1-13.4,33.2-21.6c21.5-16.4,41.8-31.7,74.4-26c37.8,6.7,68.5,28.3,95.6,47.4l6.1,4.3c3.9,2.8,7.8,5.5,11.7,8.2
				c30.1,20.8,66.5,42.2,108.2,42.9c3.7,0,7.4,0,10.9-0.2c36.2-1.8,47.5-16.1,58.4-29.9c6.3-8.1,12.9-16.4,24.4-22.2
				c9.4-4.8,21.3-5.6,33.9-6.5c16.6-1.1,33.8-2.3,46.3-13.1c10.8-9.2,19.6-20.7,28-31.8c4.5-5.9,9.2-12,14-17.5
				c6.5-7.8,14.3-14.7,23.2-20.4c9.5-6,20.5-10,32.2-11.8c13.9-2,29.7-0.8,49.8,3.8c8.6,2,17,4.9,24.8,8.6c2.7,1.2,5.2,2.5,7.7,3.7
				c11.6,5.7,21.6,10.6,36.3,9.2c4.2-0.4,8.4-1.2,12.4-2.4c11.1-3.1,20.1-9.1,28.8-14.9c15.1-10.1,29.4-19.6,52.9-13.1
				c16.6,4.7,31.9,12.8,46.7,20.8c17.8,9.6,36.3,19.4,56.7,22.7c9.6,1.3,19.4,2,29.1,2.1c13-0.1,25.9,1.2,38.5,3.8
				c8.7,2.2,16.8,5.9,23.8,11c4.3,3,8.2,6.3,11.7,9.9L1457,116.5z"/>
			<path class="st1" d="M1457,140.2c-3.6-2.7-7.4-5.1-11.4-7.2c-7.9-4.4-16.3-7.8-25.2-10.3c-12.2-3.1-24.7-5.3-37.3-6.6
				c-9.6-1.1-19.2-2.6-28.6-4.6c-18.3-4.3-34.3-14-51.2-24.2c-15.1-9.1-30.7-18.5-48.3-24.1c-25.4-7.9-41.8,2.1-59.1,12.7
				c-7.8,5.2-16.4,9.7-25.4,13.1c-3.8,1.3-7.6,2.5-11.5,3.3c-12.8,2.7-20.9,0-31.2-3.5c-2.5-0.8-5-1.7-7.8-2.5
				c-8.2-2.6-16.6-4.7-25.2-6.1c-15.8-2.5-34.2-4.6-50.9-1.1c-11.7,2.5-22.5,7.3-31.5,14.2c-8.4,6.4-15.6,13.8-21.5,22
				c-3.2,4.2-6.3,8.5-9.4,13.1c-9.3,13.3-18.9,27-31.9,37c-13.6,10.4-31.3,9.9-48.5,9.5c-11.1-0.2-21.6-0.5-30.1,2.3
				c-11.7,3.9-18.6,10.3-25.9,17c-11.7,10.8-23.7,21.9-57.8,25.2c-3.5,0.4-7.1,0.6-10.8,0.8c-42.7,2.4-79.4-16.4-109.7-34.9
				c-4.9-3-9.7-6.1-14.8-9.4l-6.3-4.1c-29.3-18.9-59.6-38.4-96.6-44.3c-32.2-5-52.1,9.2-73.4,24.3c-9.8,7.4-20.4,13.9-31.7,19.4
				c-40.7,17.9-99.2,23.6-150.6,28.4c-20,1.9-39,3.7-56.1,6.1c-20.9,3-47,6.7-64.7,19.8c-1,0.7-2,1.5-2.9,2.3
				c-12.2,10.3-18.5,23.8-24.6,36.9c-3,6.9-6.5,13.6-10.4,20.1c-9.1,15.5-23.3,28.3-40.9,36.6c-24.4,11.2-54.4,13-83.5,14.8
				l-10.1,0.6v1.6l10.2-0.6c29.3-1.8,59.5-3.6,84.2-15c17.9-8.4,32.4-21.4,41.5-37.2c3.9-6.6,7.4-13.4,10.5-20.3
				c6-12.9,12.3-26.3,24.1-36.3c0.9-0.8,1.9-1.5,2.8-2.2c17.2-12.8,43-16.4,63.7-19.5c17.1-2.4,36-4.2,56-6.1
				c51.8-4.9,110.4-10.5,151.4-28.6c11.5-5.5,22.2-12.1,32.1-19.6c20.9-14.8,40.7-28.8,71.8-23.8c36.5,5.9,66.6,25.3,95.8,44
				l6.3,4.1c5.1,3.3,9.9,6.4,14.8,9.4c30.5,18.8,67.6,37.7,110.9,35.2c3.7-0.2,7.4-0.5,10.9-0.8c34.6-3.3,47.6-15.2,58.9-25.7
				c7.1-6.6,13.9-12.8,25.2-16.6c8.2-2.7,18.5-2.5,29.4-2.2c16.7,0.4,35.7,0.8,49.8-9.9c13.6-10.1,23-24,32.5-37.4
				c3.1-4.5,6.3-8.8,9.4-13c5.8-8.1,12.9-15.5,21.1-21.8c8.8-6.7,19.3-11.4,30.7-13.9c16.4-3.4,34.6-1.3,50.1,1.1
				c8.5,1.5,16.8,3.5,24.9,6.1c2.7,0.8,5.3,1.7,7.7,2.5c10.2,3.5,18.9,6.4,32.3,3.6c4-0.9,7.9-2,11.8-3.4c9.2-3.5,17.8-8,25.8-13.3
				c16.9-10.4,32.9-20.2,57.4-12.5c17.3,5.5,32.8,14.8,47.8,23.9c17.1,10.4,33.2,20.1,51.8,24.5c9.5,2.1,19.1,3.6,28.8,4.7
				c12.6,1.3,25.1,3.5,37.3,6.6c8.7,2.5,16.9,5.9,24.6,10.1c4.4,2.4,8.5,5,12.4,8L1457,140.2L1457,140.2z"/>
			<path class="st1" d="M1457,163.7c-3.5-1.7-7.4-3.4-12.3-5.5l-2.9-1.2c-7.4-3.1-15-5.8-22.7-8.2c-11.4-3.5-22.8-6.1-33.9-8.6
				s-21.4-4.9-30.7-7.9c-16.6-5.3-31.2-15.2-46.6-25.7s-31-21.1-49.3-27.4c-26.8-9.3-46.1,1.9-64.9,12.7c-6.8,4.1-13.9,7.7-21.2,11
				c-3.8,1.6-7.6,3.2-11,4.3c-12.1,4.2-18.7,3.2-28.8,1.5l-6.3-1c-1.8-0.2-3.6-0.5-5.6-0.8c-5.7-0.8-12.3-1.8-19.6-2.5
				c-17.2-1.6-35.3-2.7-51.2,1.6c-11.4,3.2-21.6,8.9-29.8,16.4c-7.6,7.1-14.1,15-19.3,23.6c-1.8,2.7-3.6,5.7-5.4,8.7
				c-9.8,15.6-19.9,31.8-35.2,42.2c-15.4,10.4-35.2,8-52.6,5.8c-8.2-1.4-16.5-1.9-24.8-1.3c-12.6,1.7-20,6.4-28.6,11.9
				c-11.9,7.5-25.4,16-56.7,20.5c-3.6,0.5-7.2,1-10.8,1.5c-44.7,5.8-83.5-11.6-112.3-27.4c-5.9-3.2-11.7-6.6-17.9-10.2l-1.4-0.8
				L647,192c-28.7-17-58.4-34.5-94.1-39.7c-30.4-4.4-50,8.4-70.7,21.9c-9.5,6.6-19.7,12.5-30.6,17.3
				c-40.2,16.8-96.8,21.9-146.8,26.7c-18,1.7-35.1,3.3-50.7,5.3c-19.9,2.6-44.7,5.8-62,17.2c-1,0.7-2,1.3-2.9,2
				c-12.1,9.1-18.9,21-25.6,32.5c-3.1,5.7-6.6,11.6-10.6,17.1c-9.7,13.9-23.7,25-40.5,32.1c-22,9.3-48.6,11.5-74.2,13.7
				c-12.8,1.1-25.8,2.2-38.4,4.2v1.6c12.6-2,25.7-3.1,38.6-4.2c25.8-2.2,52.5-4.5,74.9-13.9c17.1-7.2,31.5-18.5,41.4-32.6
				c3.9-5.6,7.5-11.4,10.8-17.3c6.8-11.9,13.3-23.1,25.2-32c0.9-0.7,1.8-1.3,2.8-1.9c16.8-11.2,41.4-14.4,61.1-16.9
				c15.7-2,32.6-3.6,50.6-5.3c50.1-4.7,106.9-9.9,147.4-26.8c10.9-4.9,21.2-10.8,30.8-17.5c20.4-13.4,39.7-26,69.3-21.7
				c35.1,5.2,63.3,21.9,93.3,39.5c2.7,1.6,5.4,3.2,8.1,4.7l1.4,0.9c6.3,3.6,12,7,18,10.2c29.1,15.9,68.3,33.4,113.4,27.6l10.8-1.5
				c31.9-4.6,46.1-13.7,57.6-20.8c8.4-5.3,15.7-9.9,27.8-11.6c8.1-0.5,16.2-0.1,24.2,1.3c17.8,2.3,37.8,4.8,54-6.1
				c16.3-10.9,25.9-27,35.7-42.7c1.8-3,3.6-5.8,5.5-8.6c5.1-8.4,11.4-16.2,18.9-23.2c8-7.3,18-12.8,29.1-16
				c15.6-4.3,33.5-3.1,50.4-1.5c7.3,0.7,13.8,1.6,19.5,2.5c2,0.3,3.8,0.6,5.6,0.8l6.3,1c10,1.6,17.2,2.7,29.8-1.6
				c3.4-1.2,7.3-2.7,11.1-4.4c7.4-3.3,14.6-7,21.5-11.2c19.2-11,37.3-21.5,63.2-12.5c18.1,6.2,33.7,16.9,48.8,27.2
				c15.1,10.3,30.2,20.6,47.1,26c9.5,3,19.8,5.5,30.9,7.9c11,2.4,22.4,5.1,33.7,8.6c8.3,2.6,15.8,5.6,22.5,8.2l2.9,1.1
				c5.2,2.1,9.4,3.9,13,5.8L1457,163.7z"/>
			<path class="st1" d="M1457,186.8c-3.7-0.8-7.8-1.7-13.1-3.2c-5.3-1.5-10.9-3.4-17-5.5l-9.2-3.2c-6.1-2.1-12.2-4.1-18.3-6
				c-16.5-5.5-32-10.4-44.7-15.7c-14.9-6.2-28.1-16.3-42-26.9c-15.3-11.7-31.1-23.9-50.2-31.1c-28.9-11-51.3,1.5-72.9,13.7
				c-4.8,2.7-9.9,5.5-14.8,8c-2.4,1.2-4.6,2.3-6.7,3.4l-3.8,1.9c-12.8,6.5-17.9,6.7-30.3,7.2h-1.1c-4.8,0.2-10.4,0-16.9-0.3
				l-8.1-0.2h-0.5c-17.5-0.5-35.6-1-51,4.3c-11.2,3.9-20.9,10.3-28.3,18.5c-6.9,7.7-12.7,16.1-17.2,25l-2.3,4.2
				c-9.5,17.3-20,36.8-37.8,47.5s-39.9,5.2-57.6,0.8c-6-1.7-12.1-3-18.4-3.8c-15.1-1.2-23.3,2.2-35.9,7.3
				c-16.3,6.9-33.6,12.1-51.4,15.4l-10.8,2.1c-36.2,7.2-71.7,1.2-114.9-19.7c-6.3-3.1-12.6-6.4-20.2-10.4c-4.4-2.3-8.7-4.7-13-7
				c-29.4-16.1-57.2-31.2-92.1-35.8c-28.8-3.7-47.9,7.7-68.2,19.8c-9.2,5.9-19,11-29.3,15.3c-40.2,15.7-95.6,20.7-144.4,25.1
				c-15.4,1.4-30,2.7-43.7,4.3c-20,2.2-42.6,5-59.3,14.6l-2.8,1.7c-12.1,7.9-19.5,18.2-26.7,28.2c-3.4,4.7-6.9,9.6-10.8,14.2
				c-10.3,12.1-24,21.6-39.9,27.6c-19.5,7.4-42.5,9.9-64.8,12.4c-20.4,2.2-41.4,4.5-59.8,10.6c-2.4,0.8-4.8,1.7-7.1,2.7v1.8
				c2.5-1.2,5.1-2.2,7.8-3.1c18.1-6,39.1-8.2,59.3-10.5c22.4-2.5,45.5-5,65.3-12.5c16.2-6,30.3-15.7,40.8-28.1
				c4-4.6,7.5-9.5,10.9-14.3c7.4-10.2,14.4-20.1,26.2-27.7c0.9-0.5,1.8-1.1,2.7-1.6c16.3-9.5,38.7-12.1,58.5-14.4
				c13.7-1.6,28.3-2.9,43.7-4.3c49-4.4,104.5-9.5,144.9-25.3c10.4-4.4,20.3-9.5,29.5-15.5c20-11.9,38.8-23.2,66.9-19.6
				c34.6,4.5,62.1,19.6,91.3,35.6l13,7c7.5,4,13.8,7.3,20.2,10.4c43.7,21.1,79.6,27.2,116.2,19.9l10.8-2.1
				c17.9-3.3,35.3-8.5,51.7-15.5c12.3-5,20.4-8.2,34.9-7.1c6.2,0.8,12.2,2,18.2,3.7c18.1,4.5,40.6,10.1,59.1-1s29-30.8,38.5-48.2
				l2.3-4.2c4.5-8.8,10.2-17.1,16.9-24.7c7.2-8,16.7-14.3,27.5-18.1c15.1-5.1,33-4.7,50.4-4.2h0.5l8.1,0.3
				c6.6,0.2,12.3,0.4,17.1,0.2h1.1c12.3-0.5,17.9-0.7,31.2-7.4l3.8-1.9c2-1.1,4.3-2.2,6.6-3.4c5-2.5,10-5.3,14.9-8.1
				c21.2-11.9,43.2-24.2,71.2-13.5c18.9,7.2,34.6,19.2,49.7,30.9c14,10.7,27.2,20.8,42.4,27.1c12.6,5.3,28.3,10.4,44.9,15.8
				c6,2,12.1,4,18.2,6l9,3.1c6.1,2.1,11.8,4.2,17.1,5.5c5.3,1.3,9.9,2.5,13.7,3.3L1457,186.8z"/>
			<path class="st1" d="M1457,209.5c-4.7,0.4-9.3,0.2-13.9-0.5c-9.2-1.8-18.1-4.5-26.6-7.9c-21.1-7.8-41.6-16.8-61.4-27
				c-13.3-7-25-17.1-37.4-27.8c-15.3-13.2-31.1-26.8-51.1-35.2c-32.7-13.7-60.5,2.7-85,17l-4.4,2.6c-3.7,2.2-6.9,4.3-9.8,6.4
				l-2.3,1.6c-10.3,7.2-13.8,9.6-25.2,12.2c-8.2,1.5-16.5,2.2-24.8,2.2l-4.9,0.2c-16.2,0.5-32.9,1.1-46.9,6.8
				c-10.9,4.7-20.2,11.8-26.7,20.7c-6.1,8.3-11.2,17.1-15,26.4c-8.5,18.6-19.1,41.8-39.6,52.7s-45.4,1.3-63.3-5.9
				c-4.2-1.7-8.2-3.3-11.6-4.4c-20.3-6.5-30.2-3.6-54.1,3.3c-9.1,2.7-20.3,5.9-35,9.5c-3.8,0.9-7.3,1.8-10.8,2.7
				c-37.6,10.2-73.8,6.5-117.5-12.1c-6.5-2.7-13.1-5.9-21-9.7c-5.9-2.9-11.8-5.9-17.6-8.8c-28.9-14.7-56.3-28.5-90.4-32.4
				c-27.1-3.1-45.9,7-65.7,17.6c-8.9,5.1-18.2,9.6-28,13.4c-40.7,14.8-95.4,19.5-143.7,23.7c-12.3,1.1-23.9,2.1-35,3.2
				c-18.9,1.9-40.5,4.1-56.7,12c-0.9,0.4-1.9,0.9-2.7,1.4c-12.2,6.6-20.2,15.3-28,23.8c-3.4,3.7-7,7.5-10.8,11.2
				c-10.8,10.3-24.3,18.2-39.4,23.1c-16.8,5.6-36.2,8.2-54.9,10.7c-21.5,2.7-43.7,5.8-62.2,13.4c-14.2,5.8-24.8,15.3-33.6,27v2.9
				C9,373.1,19.8,363,34.4,357c18.2-7.5,40.3-10.4,61.7-13.3c18.9-2.5,38.3-5.1,55.3-10.8c15.3-5,29-13.1,40.1-23.5
				c3.9-3.7,7.5-7.6,10.9-11.3c8-8.7,15.7-17,27.5-23.4c0.9-0.5,1.8-0.9,2.7-1.4c15.7-7.7,36.2-9.8,55.9-11.8
				c11.1-1.2,22.7-2.1,35-3.2c48.4-4.2,103.3-8.9,144.3-23.8c9.8-3.8,19.3-8.3,28.3-13.4c19.5-10.5,37.8-20.4,64.4-17.4
				c33.8,3.8,60.9,17.6,89.7,32.2c5.7,2.9,11.7,5.9,17.6,8.8c7.9,3.8,14.5,7,21.1,9.8c44.1,18.8,80.8,22.5,118.9,12.2
				c3.5-0.9,7-1.8,10.7-2.7c14.7-3.6,26-6.8,35.1-9.5c24.2-7,33.2-9.6,52.9-3.3c3.1,1.1,7.2,2.7,11.4,4.3c18.3,7.3,43.3,17.3,65,5.8
				c21-11.2,31.7-34.6,40.3-53.4c3.8-9.1,8.8-17.9,14.8-26.1c6.4-8.7,15.4-15.6,26-20.2c13.6-5.5,30.2-6.1,46.2-6.6l5-0.2
				c8.5,0,16.9-0.8,25.2-2.3c11.8-2.7,15.8-5.5,25.9-12.5l2.3-1.6c2.9-2,6-4.1,9.7-6.3l4.4-2.6c24.1-14.1,51.4-30.1,83.2-16.9
				c19.7,8.2,35.4,21.9,50.6,34.8c12.6,10.7,24.3,20.9,37.8,28c19.8,10.2,40.4,19.3,61.6,27.1c8.7,3.5,17.7,6.2,27,8
				c4.7,0.8,9.5,0.9,14.3,0.6v-1.6H1457z"/>
			<path class="st1" d="M1457,231.8c-4.6,1.9-9.7,2.8-14.8,2.5c-9.2-0.4-19.3-4-27.1-7.1c-21.2-8.9-41.2-19.7-59.8-32.2
				c-11.7-7.6-22-17.6-32.9-28.2c-15.3-14.8-31.1-30.1-51.9-39.6c-34.8-15.9-68.7,2.4-91,17.5c-3.3,2.2-6.4,4.7-9.3,7.4
				c-3.6,3.4-6.3,6.2-8.5,8.7c-3.8,5-9.1,9.1-15.3,11.8c-7.9,2.8-16.2,4.5-24.7,5l-8.3,0.8c-15.3,1.3-31.1,2.7-43.9,8.9
				c-10.7,5.4-19.5,13.3-25.2,22.9c-5.4,8.9-9.7,18.2-12.9,27.8c-8.3,22.2-18.9,44.1-39,53.6c-24.8,11.6-52.7-5.1-69.3-15.1
				l-4.2-2.5c-27.2-15.9-38.1-12.6-90.8,2.7c-3.6,1.1-7.2,2.2-10.8,3.4c-39,13.5-76.1,12.1-120.2-4.4c-7.7-2.7-15.3-6.2-21.8-9
				c-7.4-3.3-14.7-6.7-21.8-10.1c-28.5-13.5-55.5-26.2-89-29.4c-25.4-2.5-43.9,6.1-63.2,15.5c-8.5,4.3-17.4,8.1-26.5,11.3
				c-42.3,14-97.6,18.5-146.3,22.4c-7.9,0.6-15.6,1.2-23,1.9h-0.9c-18.6,1.7-37.7,3.3-53.1,9.3l-2.7,1.1c-11,5.1-21,11.7-29.6,19.4
				c-3.3,2.7-6.8,5.5-10.5,8.2c-11.4,8.4-24.6,14.7-38.8,18.7c-14.4,3.8-29.2,6.6-44.1,8.6c-23,3.5-46.8,7.1-65.5,16.6
				c-25.2,12.7-35.7,38-47,64.8c-4,9.6-8.2,19.5-13.1,28.9v3.9C5.8,447,10.5,436,15,425.3c11.1-26.5,21.6-51.6,46.1-64
				c18.4-9.3,42-12.9,64.9-16.4c15-2,29.9-4.9,44.5-8.7c14.5-4,27.9-10.5,39.5-19c3.7-2.7,7.2-5.5,10.5-8.2
				c8.6-7.7,18.4-14.1,29.2-19.2l2.6-1.1c15.2-5.9,34.1-7.6,52.4-9.1h0.9l23-1.9c48.8-3.9,104.2-8.4,146.8-22.5
				c9.2-3.2,18.1-7,26.7-11.3c19.1-9.1,37.2-17.7,62.2-15.3c33.2,3.2,59.8,15.8,88.3,29.2c7.1,3.4,14.5,6.8,21.9,10.1
				c6.5,2.7,14.1,6.2,22,9c44.7,16.6,82.2,18,121.6,4.5c3.5-1.2,7.1-2.4,10.7-3.4c51.9-15.3,62.7-18.5,89.2-3.1l4.2,2.5
				c17,10.2,45.5,27.4,71.3,15.2c20.8-9.8,31.5-31.9,39.9-54.4c3.1-9.5,7.3-18.7,12.6-27.4c5.5-9.3,14-17,24.4-22.3
				c12.6-6,28.1-7.3,43.2-8.7c2.8-0.2,5.5-0.5,8.3-0.7c8.7-0.5,17.3-2.2,25.4-5.1c6.4-2.8,11.9-7,15.9-12.3c2.2-2.5,4.8-5.3,8.3-8.6
				c2.8-2.6,5.8-5,9-7.2c22-14.8,55.2-32.9,89.1-17.3c20.5,9.3,36.2,24.7,51.4,39.3c11,10.7,21.3,20.7,33.2,28.4
				c18.7,12.6,38.9,23.5,60.2,32.4c7.9,3.2,18.2,6.8,27.7,7.3c5.1,0.3,10.2-0.5,14.9-2.4V231.8z"/>
			<path class="st1" d="M7.2,563.7c-1.4-5.3-3.1-10.3-4.5-14.7c-1-3-1.9-5.7-2.7-8.2v6.1c0.3,0.9,0.6,1.8,0.9,2.7
				c1.5,4.6,3.1,9.3,4.5,14.6c4.3,15.9,5.4,39.2-4.2,56.8c-0.4,0.7-0.8,1.5-1.3,2.2v3.2c1.1-1.5,2.1-3.1,2.9-4.7
				C12.7,603.6,11.6,579.9,7.2,563.7z"/>
			<path class="st1" d="M1457,253.5c-4.3,3.6-9.8,5.8-15.8,6.1c-7.7,0.4-16.4-1.6-27.6-6.4c-21.5-9.3-42.4-24.9-58.2-37.5
				c-10.3-8.7-19.7-18.1-28.3-28.1c-15.2-16.6-30.9-33.8-52.8-44.6c-32.8-16.2-69.3-2.7-92.7,15.3c-3.2,2.5-6.2,5.3-8.7,8.4
				c-3.2,4-5.9,8.3-8.2,12.8c-2.3,5.6-6.3,10.6-11.7,14.4c-6.6,4.3-16.1,6.3-24.6,7.7c-3.5,0.6-7.1,1.1-10.8,1.6
				c-14.6,2-29.7,4.1-41.7,10.7c-9.9,5.5-17.4,13.4-23.6,25.1c-4.5,9.3-8.1,19-10.7,28.8v0.4c-5.6,18.9-15.8,45.1-38.5,54.4
				c-20.3,8.2-44.1,0.2-72.4-24.9c-26.5-23.4-42.3-24.5-92.7-7c-3.5,1.2-7.1,2.7-10.7,4.1c-40.3,16.4-78.1,17.5-122.8,3.1
				c-6.5-2.1-13.6-4.7-22.6-8.2c-8.9-3.5-17.5-7.4-25.9-11c-28.3-12.5-54.9-24.2-87.9-26.8c-24.1-1.9-42,5.5-61,13.3
				c-8.1,3.4-16.4,6.4-24.9,9c-46.5,13.9-107.8,18.1-157,21.5l-5.8,0.4c-16.7,1.1-33.9,2.3-48.4,6.6l-2.6,0.8
				c-11.4,3.9-22.3,9-32.3,15.2c-3,1.7-6,3.4-9.1,5.1c-11.9,6.4-24.8,11.1-38.4,14.2c-10.2,2.4-21.4,4.2-32.1,6
				c-25.2,4.2-51.3,8.5-70.2,20.3c-21.3,13.3-28.9,36.1-37,60.3C44.3,440,39,455.9,30,470.1c-4.2,6.4-9,12.5-14.1,18.4l-1.6,1.9
				C8.8,496.6,4,503.3,0,510.4v4c4.2-8.2,9.4-15.9,15.7-23l1.6-1.9c5.2-5.9,10-12.1,14.2-18.5c9.2-14.4,14.5-30.3,19.7-45.8
				c8-23.9,15.5-46.6,36.3-59.4c18.6-11.6,44.5-15.9,69.5-20c10.8-1.8,22-3.6,32.3-6.1c13.7-3.1,26.8-7.9,38.9-14.4
				c3.1-1.7,6.3-3.4,9.1-5.1c9.9-6.1,20.6-11.2,31.9-15c0.8-0.3,1.7-0.5,2.6-0.8c14.2-4.2,31.5-5.5,47.9-6.5l5.8-0.4
				c49.3-3.4,110.6-7.6,157.5-21.6c8.6-2.7,17-5.8,25.2-9.3c18.9-7.7,36.5-15,60.1-13.1c32.7,2.6,59.2,14.3,87.3,26.7
				c8.4,3.7,17,7.5,25.9,11c8.9,3.4,16.2,6.3,22.7,8.4c45.2,14.6,83.5,13.7,124.2-3.2c3.6-1.5,7.1-2.7,10.6-4
				c52.4-18.1,65.6-15.1,90.5,6.8c29,25.6,53.5,33.8,74.5,25.2c23.4-9.7,33.6-36.4,39.3-55.5v-0.3c2.5-9.8,6.1-19.3,10.6-28.6
				c6-11.4,13.3-19.2,22.9-24.4c11.7-6.4,26.6-8.5,41-10.5c3.7-0.5,7.3-1,10.8-1.6c8.7-1.4,18.6-3.5,25.4-8c5.6-3.9,9.9-9.1,12.3-15
				c2.2-4.4,4.8-8.6,8-12.6c2.4-3,5.2-5.8,8.4-8.2c22.8-17.7,58.6-31,90.6-15.1c21.6,10.7,37.3,27.8,52.4,44.3
				c8.7,10.1,18.3,19.5,28.6,28.3c15.7,12.7,36.9,28.4,58.6,37.8c11.4,4.9,20.5,7,28.5,6.5c5.8-0.3,11.2-2.3,15.5-5.6L1457,253.5
				L1457,253.5z"/>
			<path class="st1" d="M1457,274.7c-4.2,4.8-8.6,9.1-16.5,10.3c-7.9,1.2-17.2-0.6-28.1-5.6c-21.4-9.8-41.5-28-56.7-42.7
				c-8.6-8.7-16.6-17.9-23.9-27.4c-14.9-18.7-30.6-38-53.5-50.2c-32.5-17.4-72.1-6.5-94.5,13.3c-3.2,2.8-5.9,6-8,9.4
				c-3.1,5.1-5.3,10.5-6.7,16.2c-1.9,6.7-3.6,12.5-9.4,17.8c-5,4.6-12.4,7.7-24.5,10.4c-4.2,0.9-8.4,1.7-12.8,2.6
				c-14.1,2.7-28.7,5.5-40,12.4c-9.7,6-16.7,14.7-22,27.4c-3.6,9.3-6.3,18.8-8.1,28.5l-0.5,2.1c-6.8,30.1-19.5,48.7-37.8,55.3
				c-32.2,11.5-62.7-21.7-71.2-32.1c-23.8-29-42.1-37.8-94.2-17c-3.6,1.4-7.1,3-10.7,4.7c-42.1,20.2-79.6,23.4-125.4,10.7
				c-6.9-1.9-14.6-4.4-23.4-7.6c-10.1-3.7-20-7.8-29.6-11.8c-28-11.6-54.4-22.5-87.1-24.5c-22.7-1.4-41.2,5-59.2,11
				c-7.4,2.5-15,5.1-22.9,7.2c-49.1,12.9-109.5,17.1-150.6,19.2l-6.1,0.3c-14.2,0.3-28.4,1.6-42.4,3.9c-0.9,0-1.7,0.3-2.6,0.5
				c-13.1,2.9-25.9,6.7-38.3,11.4l-4.3,1.5c-12.2,4.2-24.9,7.5-37.8,9.7c-5.5,1-11.1,1.9-17,2.7c-28.7,4.7-58.4,9.5-78,24.7
				c-18,13.9-23.1,34.9-28.3,57.2c-4,16.7-8.2,34.1-18.2,49.3c-4.7,6.8-10.1,13.2-16.1,19.2c-6.8,6.8-13.1,13.9-18.9,21.3
				c-4.9,6.1-7.7,13.3-8.3,20.8c-0.3,8.1,0.5,16.3,2.3,24.3c0.3,2,0.7,4,1,6.1c2,12.7,4.1,36.8-5,55.4c-3.1,6.6-7.9,12.4-14,17
				c-2.4,2.2-4.9,4.5-7.3,6.7v2.3c3-2.6,5.8-5.3,8.6-7.9c6.3-4.8,11.3-10.8,14.5-17.6c9.4-19,7.2-43.4,5.1-56.3
				c-0.3-2.1-0.7-4.1-1-6.1c-1.7-7.9-2.5-15.9-2.2-23.9c0.5-7.2,3.3-14.1,7.9-20c5.7-7.3,12-14.4,18.6-21.1
				c6.1-6,11.5-12.5,16.3-19.3c10.1-15.3,14.3-32.9,18.4-49.6c5.3-21.9,10.3-42.8,27.9-56.4c19.2-14.8,48.7-19.6,77.1-24.2
				c5.9-1,11.5-1.9,17-2.7c13.1-2.3,25.9-5.6,38.2-9.8l4.3-1.5c12.3-4.7,25-8.5,38.1-11.3l2.5-0.5c13.9-2.2,28-3.5,42.1-3.8l6.1-0.3
				c41.2-2.1,101.7-6.3,151.2-19.2c8-2.1,15.7-4.7,23.1-7.3c18.5-6.4,36.1-12.3,58.4-11c32.4,2,58.6,12.8,86.4,24.4
				c9.4,4,19.5,8.2,29.7,11.8c8.9,3.2,16.6,5.8,23.6,7.7c46.4,12.9,84.3,9.6,126.9-11c3.6-1.7,7.1-3.3,10.6-4.7
				c50.2-20.1,67.7-13.2,91.9,16.4c8.8,10.7,39.9,44.7,73.5,32.7c18.9-6.8,32.1-25.8,39-56.5l0.5-2.1c1.8-9.6,4.5-19,8.1-28.2
				c5.3-12.3,12-20.7,21.4-26.5c11-6.8,25.4-9.5,39.3-12.2c4.3-0.8,8.7-1.6,12.9-2.6c12.6-2.7,20.1-6,25.4-11
				c6.3-5.6,8.1-11.9,10-18.5c1.3-5.5,3.5-10.8,6.4-15.8c2.1-3.3,4.7-6.4,7.8-9.1c21.2-18.8,60.7-29.8,92.1-13
				c22.6,12.1,38.1,31.3,53,49.8c7.3,9.5,15.3,18.7,23.8,27.4c15.3,14.8,35.5,33.1,57.1,43.1c11.3,5.2,20.8,7.1,29.3,5.8
				c6.6-1.2,12.4-4.5,16.2-9.3v-2.7H1457z"/>
			<path class="st1" d="M1440.2,311.9c8.3-2,12.9-7.5,16.8-13.4v-3.2c-4.3,6.7-8.6,13-17.3,15.1c-8.7,2.1-17.8,0.4-28.6-4.9
				c-16.5-8.1-35-24.2-55-47.9c-6.8-8.2-13-16.7-19.4-25.9c-14.9-21-30.3-42.8-54.4-56.7c-32.4-18.7-75.8-9.3-96,11.2
				c-3.1,3.1-5.6,6.6-7.4,10.4c-2.7,6.1-4.3,12.6-4.8,19.2c-1,7.8-1.9,15.1-7.5,21.6c-4.8,5.5-12.3,9.6-24.5,13.1
				c-4.6,1.3-9.6,2.5-14.5,3.6c-13.8,3.2-28,6.6-38.7,14c-9.4,6.6-16,16-20.5,29.5c-2.7,9.2-4.7,18.6-5.9,28l-0.6,4
				c-3.4,21.4-12.6,48.5-37.4,56.2c-28.3,8.7-55.4-15.8-70.1-39.4c-22-35.6-44.1-50.4-95.8-26.8c-3.5,1.6-7.1,3.4-10.7,5.5
				c-43.3,23.8-81.6,29.2-128.1,18.3c-7.4-1.7-15.3-4-24.3-6.9c-11.4-3.8-22.4-8.1-33.1-12.2c-27.7-11-54-21.1-86.5-22.4
				c-21.6-0.9-40.1,4.1-58.1,9c-6.6,1.8-13.3,3.6-20.2,5.1c-46.3,9.8-93.7,15.3-141.4,16.5l-13.4,0.3c-10.8,0.2-22,0.4-32.4,1.2
				l-2.5,0.2c-14.7,1.2-29.3,3-43.8,5.5c-11.9,2-24.5,3.6-37.5,5.2c-33.5,4.1-68,9.7-87.6,28.6c-15.1,14.5-18,34.4-20.9,55.3
				c-2.6,17.8-5.2,36.2-15.7,51.8c-4.7,6.5-10.2,12.5-16.5,17.9c-3.7,3.3-7.2,6.4-10.4,9.2c-4,3.5-7.8,6.8-11.1,9.9
				c-6.7,5.8-11.7,12.8-14.7,20.6c-3.1,9.1-3,19.6-2.4,31.3c1,18.8,1,38.4-5.9,54.2c-2.8,6.5-7,12.5-12.3,17.6
				c-9,9.7-18.7,18.9-29.2,27.4v2.2c10.9-8.9,21.2-18.5,30.6-28.6c5.5-5.3,9.8-11.4,12.6-18.1c7-16.1,7-35.8,6-54.8
				c-0.6-11.6-0.9-21.9,2.3-30.8c2.9-7.6,7.8-14.4,14.3-20c3.3-3.1,7.1-6.4,11.1-9.9c3.1-2.7,6.7-5.9,10.5-9.3
				c6.4-5.5,12-11.6,16.8-18.2c10.9-15.9,13.5-34.5,16.1-52.4c3-20.7,5.7-40.2,20.5-54.4c19.2-18.5,53.3-24,86.5-28.1
				c13-1.6,25.6-3.2,37.6-5.2c14.4-2.5,29-4.3,43.7-5.5l2.5-0.2c10.3-0.8,21.4-1,32.3-1.2c4.4,0,8.9-0.2,13.4-0.3
				c47.8-1.2,95.3-6.8,141.7-16.7c6.9-1.6,13.7-3.4,20.3-5.1c18.6-5,36.2-9.8,57.4-8.9c32.2,1.3,58.3,11.5,85.9,22.3
				c10.7,4.2,21.7,8.5,33.2,12.3c8.9,2.9,16.9,5.2,24.4,7c47.1,11,85.8,5.5,129.6-18.5c3.6-1.9,7.1-3.8,10.6-5.3
				c50.4-23,71.8-8.5,93.4,26.2c15.1,24.2,43.1,49.3,72.4,40.2c25.6-7.9,35.1-35.6,38.6-57.5l0.6-4c1.2-9.4,3.2-18.6,5.8-27.8
				c4.2-13.1,10.5-22.2,20-28.6c10.4-7.3,24.4-10.5,38-13.7c4.8-1.1,9.9-2.3,14.5-3.6c8.4-2.4,18.9-6.1,25.4-13.7
				c5.8-6.9,6.8-14.4,7.8-22.4c0.5-6.4,2-12.7,4.6-18.6c1.8-3.6,4.2-7,7.1-10c19.7-19.9,62-29.1,93.5-11
				c23.8,13.7,39.1,35.3,53.9,56.2c6.3,8.8,12.6,17.9,19.5,26c20.1,23.9,38.8,40.4,55.5,48.6
				C1421.4,312.5,1431.3,314.1,1440.2,311.9z"/>
			<path class="st1" d="M1457,810.6c-3.8,1.7-7.3,3.7-10.5,6.1c-16,11.8-20.4,28.1-21.7,45.2h1.9c1.3-16.8,5.6-32.7,21-44
				c2.9-2.1,6.1-3.9,9.4-5.5L1457,810.6z"/>
			<path class="st1" d="M355.2,862h5.1c22.9-7.3,50.4-7.7,83.7-1.1l5.9,1.1h11.5c-5.7-0.6-11.4-1.5-17-2.7
				C408.7,852.2,379.2,853.1,355.2,862z"/>
			<path class="st1" d="M669.1,819.3c-1.5-0.2-3-0.2-4.6-0.2c-5.5-0.1-10.8,1.2-15.4,3.8c-3.8,2.4-7.1,5.3-10,8.5
				c-2.4,2.7-5.2,5.2-8.2,7.4c-13.1,8.8-34,7-56.1,5c-7.7-0.7-15.7-1.4-23.6-1.7c-16-0.5-26.4,4-37.5,8.8
				c-5.7,2.6-11.5,4.9-17.5,6.8c-6.5,2.1-13.2,3.6-20.1,4.4h10c3.3-0.7,6.8-1.7,10.7-2.7c6.1-1.9,12-4.2,17.8-6.8
				c10.8-4.7,21.1-9.2,36.5-8.7c7.8,0.3,15.7,1,23.5,1.7c22.5,2,43.7,3.9,57.4-5.3c3.1-2.3,6-4.8,8.5-7.6c2.7-3.1,5.9-5.9,9.4-8.2
				c5.6-3,12.2-4.1,18.7-3.2c8.6,1.1,16.7,4.5,23.1,9.6c8.9,7,16,17.6,21.4,31.4h2.1c-5.5-14.4-12.8-25.2-22-32.6
				C686.6,824,678.1,820.5,669.1,819.3z"/>
			<path class="st1" d="M1457,784.9c-9.4-0.5-18.8-0.2-28.1,0.8c-11,1.1-21.5,4.9-30.1,11c-22.1,15.8-21,40.7-19.1,65.3h1.9
				c-2-25.1-2.8-48.7,18.4-64c8.4-5.8,18.5-9.5,29.2-10.6c9.2-1,18.5-1.3,27.8-0.8L1457,784.9L1457,784.9z"/>
			<path class="st1" d="M1408.8,333c11.2,5.8,21.6,7.3,30.7,4.3c9.2-3,13.6-10.4,17.5-18v-4l-0.3,0.6c-4.3,8.7-8.5,16.8-17.9,19.9
				c-8.8,2.9-18.3,1.5-29.2-4.1c-23.5-12.2-45.2-41.3-53.5-53.2c-5.2-7.5-10.1-15.5-14.9-23.3c-14.6-23.8-29.7-48.4-55.3-64.2
				c-29.9-18.6-77.4-14.2-97.6,9.1c-3,3.5-5.3,7.3-6.8,11.5c-2.2,7.1-3.2,14.4-2.8,21.7c0,9.2-0.3,17.9-5.5,25.6
				c-4.6,6.7-12.1,11.6-24.5,15.8c-5,1.7-10.4,3.2-15.7,4.7c-13.5,3.8-27.5,7.7-37.8,15.6c-9.4,7.3-15.4,17.3-18.9,31.6
				c-1.9,9.1-3.2,18.2-3.8,27.4c-0.2,2-0.3,4-0.5,5.9c-1.4,14.6-7.7,49.3-36.8,57.1c-30.3,8.1-56.1-20.2-69.1-46.8
				s-27-41.5-44.1-46.4c-14.9-4.3-32.3-1.1-53.5,9.7c-3.4,1.8-7,3.8-10.7,6.1c-44.3,27.4-83.4,35.2-130.7,25.9
				c-8.5-1.7-16.9-3.8-25.2-6.2c-12.6-3.8-24.7-8.2-36.3-12.5c-27.7-10.2-53.8-19.9-86.2-20.5c-21.4-0.4-40.9,3.4-59.8,7.1
				c-4.8,1-9.8,1.9-14.7,2.7c-33.1,5.9-82.7,13.9-131.8,14.1c-14.3,0-29.1-0.5-43-1h-2.4l-14.6-0.7c-10.4-0.5-20.2-1-30.5-1
				c-11.1,0-23.9,0-37,0.7c-26.8,1.6-62.4,8.1-80.2,29.8c-12.6,15.3-13.4,35.1-14.2,54.2c-0.8,18.5-1.6,37.7-12.6,53.6
				c-4.6,6.3-10.3,11.9-16.9,16.7c-5.8,4.5-11.6,8.4-17.2,12.2c-2.5,1.7-4.9,3.3-7.2,5c-9,5.3-16.2,12.3-21.5,20.3
				c-6,10-7.4,21.4-8,32.2c-0.2,3-0.3,6.1-0.4,9.2c-0.6,14.8-1.2,30.1-6.3,43.6c-2.5,6.5-6,12.7-10.6,18.3
				c-13.1,17.3-31.9,32.5-51,47v2.1c19.7-14.9,39-30.5,52.5-48.2c4.9-5.6,8.8-11.9,11.5-18.5c5.2-13.7,5.8-29.2,6.3-44.1
				c0-3.1,0.3-6.2,0.4-9.2c0.6-10.7,1.9-21.9,7.8-31.5c5.2-7.8,12.3-14.7,20.7-20c2.3-1.6,4.8-3.3,7.2-5c5.6-3.8,11.4-7.7,17.3-12.2
				c6.7-4.9,12.5-10.7,17.3-17.1c11.4-16.2,12.2-35.6,13-54.4c0.8-19.8,1.6-38.4,13.8-53.3c17.4-21.2,52.5-27.4,78.7-29.1
				c13-0.8,25.9-0.8,36.9-0.7c10.3,0,20.1,0.5,30.4,1.1c4.8,0.2,9.6,0.5,14.6,0.7h2.4c13.9,0.5,28.7,1.1,43.1,1
				c49.3-0.2,99.1-8.2,132.3-14.1c4.9-0.9,9.9-1.9,14.7-2.7c19.6-3.8,38.1-7.4,59.3-7c32,0.6,58,10.2,85.5,20.4
				c11.7,4.3,23.8,8.8,36.5,12.6c8.3,2.5,16.7,4.6,25.2,6.3c48,9.4,87.5,1.6,132.3-26.1c3.7-2.2,7.2-4.3,10.6-6
				c20.6-10.5,37.6-13.7,51.9-9.5c16.4,4.7,30.1,19.2,42.9,45.5c13.3,27.2,39.9,56,71.3,47.7c30.2-7.9,36.7-43.6,38.1-58.5
				c0.2-2,0.4-4,0.5-6c0.6-9.1,1.9-18.2,3.8-27.2c3.4-13.9,9.2-23.7,18.3-30.8c10-7.7,23.8-11.6,37.1-15.3c5.3-1.5,10.7-3,15.8-4.7
				c8.6-3,19.3-7.6,25.4-16.4c5.6-8.2,5.7-17,5.8-26.5c-0.3-7.2,0.6-14.3,2.7-21.2c1.4-4,3.7-7.7,6.5-11c19.6-22.6,65.8-26.8,95-8.7
				c25.2,15.6,40.2,40.1,54.7,63.6c4.8,7.8,9.7,15.8,14.9,23.3C1365,294.2,1385.8,321,1408.8,333z"/>
			<path class="st1" d="M740.6,779.5c-8.2-5.4-18.1-8.5-28.3-8.8h-1.4c-7.7-0.1-15.3,1.9-21.6,5.9c-4.5,3.2-8.4,7-11.7,11.1
				c-2.7,3.3-5.8,6.4-9.2,9.3c-16.1,12.7-40.9,11.7-67,10.7c-6.1-0.2-12.6-0.5-18.7-0.5c-16.2,0-26.4,4.8-37.3,9.9
				c-6,3-12.4,5.6-18.9,7.8c-22,6.7-32,5.5-53.1,0c-50.8-12.7-87.1-8.6-114.2,12.9c-3.6,2.8-6.9,5.9-10,9.1
				c-4.5,4.8-8.4,9.8-11.9,15.2h2.1c3.3-4.9,7-9.6,11.1-14.1c3-3.2,6.3-6.2,9.8-9c26.6-21,62.3-25,112.4-12.5
				c21,5.3,31.8,6.7,54.2-0.2c6.6-2.2,13-4.8,19.1-7.9c10.6-5.1,20.6-9.9,36.3-9.7c6.3,0,12.6,0.3,18.6,0.5
				c25.4,1,51.6,2.1,68.3-11.1c3.5-2.9,6.7-6.1,9.4-9.5c3.2-4,7-7.7,11.4-10.8c6.3-3.9,14-5.9,21.8-5.5c9.8,0.4,19.3,3.4,27.1,8.5
				c12.8,8.4,22.8,22.3,29.9,41.4c4.6,12.9,7.7,26.3,9.2,39.8h1.9c-1.5-13.7-4.7-27.2-9.4-40.3C763.8,802.3,753.6,788.1,740.6,779.5
				z"/>
			<path class="st1" d="M787.8,729.6c-9.1-5-19.6-7.6-30.4-7.6c-10.1-0.2-19.9,2.7-27.8,8.2c-5.2,4.1-9.7,8.7-13.5,13.8
				c-3,3.9-6.4,7.6-10.1,11c-18.6,16.4-47.2,16.4-75.1,16.7c-5.5,0-11.1,0-16.5,0.2c-16.3,0.5-26.5,5.7-37.2,11.1
				c-6.4,3.5-13.1,6.4-20.1,8.7c-22.2,6.9-32,5.2-54.4-1.4c-37.5-11.1-91.3-21-126.5,21.5c-12.3,14.8-18.9,32.4-24.3,50h1.9
				c5.4-17.3,11.9-34.5,23.9-49c34.4-41.7,87.5-31.9,124.4-21c22.8,6.8,32.8,8.5,55.6,1.4c7.1-2.4,14-5.3,20.4-8.8
				c10.5-5.5,20.5-10.4,36.3-11c5.4-0.1,11-0.2,16.5-0.2c28.1-0.1,57.1-0.3,76.3-17.2c3.8-3.5,7.2-7.3,10.3-11.3
				c3.7-5,8.1-9.5,13.2-13.5c16.2-11.7,40.5-9,56.1-0.4c14.8,8.2,26.6,22.3,35,41.8c11.4,26.4,14.9,55.9,10.8,89.2h1.9
				c4.1-33.5,0.5-63.2-10.9-89.7C814.9,752.3,802.8,738,787.8,729.6z"/>
			<path class="st1" d="M1449.6,624.2c2.1,4.6,4.6,9.1,7.4,13.4v-3.3c-2.1-3.5-4.1-7-5.7-10.7c-12.9-28.8-6.3-59.2,5.7-84.6v-4.1
				C1443.9,561.3,1435.8,593.6,1449.6,624.2z"/>
			<path class="st1" d="M1354.7,300c4.1,7.2,37.8,64.8,72.4,64.8c4,0,8-0.8,11.6-2.3c9.9-4,14.2-13.7,18.2-23.3v-4.9
				c-0.4,1-0.8,1.9-1.2,2.9c-4.2,10.2-8.1,19.8-17.8,23.7c-30,12.2-65.4-33.1-81.6-61.8c-3.6-6.4-7-13-10.4-19.4
				c-14.2-27-28.9-55-56-73c-10.5-6.5-22.7-10.8-35.4-12.5c-12.8-1.7-25.8-0.7-38.1,2.8c-16.9,5.3-28.2,15.6-31.8,29.1
				c-1.7,8-2,16.1-1,24.2c0.8,10.7,1.5,20.8-3.6,29.9c-7.6,13.6-24,18.9-41.4,24.5c-13.3,4.3-27,8.7-36.8,17.1
				c-18.1,15.4-18.7,38.8-19.3,61.4c0,2.4,0,4.8-0.2,7.2c-0.4,11.8-4.4,50.9-36.3,58s-56.7-24.7-68-54.1
				c-12.8-32.9-28.9-51.6-49.2-56.8c-17.3-4.5-37.6,1.2-60.5,16.9c-53.3,36.6-98,44.5-159.3,28.1c-13.8-3.7-26.8-8.2-39.3-12.7
				c-27.4-9.6-53.2-18.7-85-18.7h-0.9c-32,0.2-63,4.5-93,8.7c-45.5,6.4-92.6,13-142.7,4.5c-8.1-1.4-16.3-3.1-24.3-4.7
				c-18.9-3.9-38.7-8-58.6-8.2c-25.5-0.2-58.3,7.8-72.9,30.9c-10.1,16.1-9,35.2-7.9,53.8c1.2,19.2,2.4,38.9-9.2,54.8
				c-8.6,11.7-22.8,19.2-36.6,26.5c-13,6.8-26.5,13.9-35.5,24.7c-12.6,14.8-14.2,33.6-15.7,51.8C86.8,605,85,616,82,626.8
				c-11,34-45,57.3-77.8,79.6l-4,2.7v2.1l5.1-3.5c32.9-22.6,67.1-46,78.2-80.6c3-10.9,4.9-22,5.5-33.1c1.7-18.8,3.3-36.5,15.5-51
				c8.8-10.5,22-17.5,35-24.2c14-7.3,28.3-14.9,37.2-27c11.8-16.2,10.6-36.3,9.4-55.6c-1.1-18.3-2.2-37.2,7.7-52.9
				c14-22.2,45.2-30.1,70.2-30.1h1c19.7,0.2,39.2,4.2,58.2,8.2c8,1.6,16.2,3.3,24.4,4.7c50.4,8.6,97.6,1.9,143.3-4.5
				c29.9-4.2,60.8-8.5,92.7-8.7h0.9c31.5,0,57.3,9,84.4,18.6c12.6,4.4,25.7,9,39.5,12.7c61.2,16.4,107.8,8.2,160.9-28.2
				c22.4-15.3,42.2-21,58.8-16.7c19.7,5.1,35.3,23.3,48,55.8c11.7,30.1,37.1,62.5,70.2,55.2c33.1-7.3,37.2-47.4,37.8-59.5
				c0-2.4,0-4.8,0.2-7.2c0.6-22.3,1.3-45.4,18.9-60.3c9.4-8.2,23-12.5,36.1-16.7c17.8-5.8,34.6-11.1,42.5-25.3
				c5.3-9.5,4.5-20.3,3.8-30.7c-1-7.9-0.7-15.9,0.9-23.7c3.5-13,14.4-22.9,30.7-27.9c12-3.5,24.7-4.4,37.2-2.8
				c12.5,1.6,24.3,5.8,34.6,12.2c26.8,17.8,41.3,45.6,55.5,72.4C1347.7,287,1351.2,293.7,1354.7,300z"/>
			<path class="st1" d="M1457,770.9c-11.1-0.2-22.1-1-33.1-2.4c-26.2-2.7-53.3-5.8-72.8,8.2c-24.2,17.1-20,44.6-15.5,73.7
				c0.6,3.8,1.2,7.7,1.7,11.6h1.9c-0.5-3.9-1.1-7.9-1.7-11.8c-4.4-28.6-8.6-55.7,14.8-72.3c18.9-13.4,45.6-10.5,71.4-7.8
				c11,1.4,22.2,2.2,33.3,2.3L1457,770.9L1457,770.9z"/>
			<g>
				<path class="st2" d="M0,72c14.8-5.7,29.6-12,40-22.1c6.3-6,10.9-13.1,13.4-20.9c2.4-9.2,3.2-18.6,2.3-28c0-0.3,0-0.6,0-0.9H52
					c0,0.3,0,0.7,0,1c0.9,9.1,0.2,18.2-2.1,27.1c-2.4,7.3-6.7,14-12.6,19.6C27.7,57,13.9,63,0,68.5V72z"/>
				<path class="st2" d="M1457,91.1c-8.6-10.2-18.9-18.3-33.5-21.4c-13-2.7-26.6-1.9-39.7-1.1c-9.9,0.9-19.8,1-29.7,0.4
					c-21.6-2-41.4-11.3-60.5-20.4c-14.7-7-29.9-14.1-46.1-18.3c-24.3-6-38.4,4.4-52,14.4c-8.8,6.5-17.8,13.1-29.7,15.7
					c-22.2,4.8-36.1-3.8-52.1-13.7c-9.6-6-19.6-12.2-32.3-15.9c-34.7-10.2-61-9.1-85.4,3.4c-19.8,10.1-33.3,26.7-46.4,42.7
					c-6.8,8.7-14.2,17-22,25c-10.6,10.2-25.8,12.5-42,15c-13.7,2.1-27.9,4.2-38.9,11.7c-12.6,8.4-18.9,19.2-25.2,29.3
					C811,175.1,802,190,766.8,190.1c-43.7,0-82.4-25.4-114.6-50.4L645,134c-31-24.2-63-49.3-103.6-57c-35.6-6.8-57.9,11.2-79.4,28.6
					c-10.5,8.5-21.4,17.4-33.9,23.4c-41.4,20.2-103.2,26.3-157.9,31.6c-24.2,2.4-47.2,4.6-67.3,7.9c-28.3,4.6-53.1,9.6-70.5,25.3
					c-14.7,13.2-20.4,31.3-26,48.8c-2.5,8.8-5.7,17.5-9.4,26c-21,43.9-56.4,56-97,59.6v3.2c41.2-3.8,78.7-16.4,100.2-61.5
					c3.8-8.6,7.1-17.4,9.7-26.4c5.7-17.9,11.1-34.8,25.2-47.4c16.6-14.9,40.9-19.9,68.5-24.4c20.1-3.2,42.9-5.5,67.1-7.9
					c55-5.5,117.3-11.6,159.4-32c12.9-6.2,24-15.2,34.6-23.9c21.8-17.7,42.4-34.4,76.1-27.8c39.5,7.7,71.2,32.3,101.8,56.3l7.2,5.6
					c32.6,25.3,72,51.2,116.7,51.2h0.4c37.4,0,47.2-16.4,57.9-34c6-9.9,12.3-20.2,24.1-28.3c10.3-6.9,24-9,37.2-11
					c16.1-2.4,32.7-4.9,44.1-16c8-8,15.5-16.5,22.3-25.3c12.8-15.7,26.1-32.2,45.2-41.9c23.5-12,48.9-13,82.4-3.1
					c12.1,3.6,21.9,9.6,31.3,15.5c16.1,10,31.3,19.5,55.1,14.3c12.8-2.7,22.1-9.7,31.2-16.4c13.4-9.9,26.2-19.2,48.6-13.7
					c15.8,3.9,30.9,11,45.4,17.9c19.4,9.2,39.5,18.7,61.9,20.7c10.1,0.7,20.3,0.5,30.4-0.4c12.8-0.8,26.1-1.6,38.6,1
					c15.3,3.2,25.4,12.5,34.4,23.8V91.1z"/>
				<path class="st2" d="M788.2,728.9c-9.3-5.1-20-7.8-30.9-7.8c-10.3-0.2-20.3,2.8-28.3,8.4c-5.2,4.1-9.8,8.8-13.7,14
					c-3,3.9-6.3,7.5-10,11c-18.4,16.2-46.9,16.4-74.4,16.4c-5.6,0-11.1,0-16.6,0.2c-16.6,0.5-26.8,5.7-37.8,11.3
					c-6.3,3.4-13,6.3-19.9,8.7c-22,6.8-31.7,5.2-53.7-1.4c-37.8-11.2-92.1-21.1-127.6,21.9c-12.4,15-18.9,32.9-24.5,50.5h3.8
					c5.4-17.2,11.8-34.2,23.7-48.6c26.3-31.8,64.3-38.2,123.4-20.7c22.5,6.7,33.2,8.5,56.2,1.4c7.2-2.4,14.1-5.4,20.6-8.9
					c10.4-5.3,20.3-10.4,35.9-10.8c5.4-0.2,10.9-0.2,16.5-0.2c28.3-0.2,57.5-0.3,77-17.5c3.8-3.5,7.3-7.3,10.4-11.4
					c3.6-5,8-9.5,13-13.4c15.7-11.4,39.7-8.8,55-0.3c14.6,8.1,26.3,21.9,34.6,41.4c11.3,26.3,14.9,55.7,10.7,88.9h3.7
					c4.1-33.6,0.5-63.4-11-90C815.7,751.9,803.6,737.4,788.2,728.9z"/>
				<path class="st2" d="M1448.7,624.5c2.3,5.1,5.1,10,8.3,14.7v-6.7c-1.8-3-3.4-6.1-4.8-9.2c-12.6-27.9-6.5-57.3,4.8-82.2v-8.2
					C1443.3,559.7,1434.6,592.9,1448.7,624.5z"/>
				<path class="st2" d="M1457,770.1c-11.1-0.2-22.1-1-33-2.4c-26.4-2.7-53.5-5.8-73.5,8.2c-24.6,17.4-20.3,45.1-15.7,74.5
					c0.6,3.8,1.2,7.6,1.7,11.5h3.7c-0.6-3.9-1.2-7.9-1.8-11.9c-4.4-28.4-8.6-55.3,14.4-71.5c18.6-13.2,45.1-10.4,70.7-7.6
					c11.1,1.4,22.3,2.2,33.5,2.3L1457,770.1z"/>
				<path class="st2" d="M1353.9,300.4c4.1,7.3,38,65.3,73.4,65.3c4.1,0,8.2-0.8,11.9-2.3c9.4-3.9,14-12.6,17.8-21.7v-9.5
					c-0.7,1.6-1.4,3.3-2.1,5c-4.1,10-8,19.5-17.3,23.2c-29.3,11.9-64.4-32.9-80.4-61.4c-3.6-6.4-7.1-13-10.4-19.4
					c-14.3-27.1-29-55.1-56.3-73.3c-10.6-6.6-22.9-11-35.8-12.7s-26.1-0.7-38.5,2.9c-17.2,5.5-28.7,15.9-32.4,29.6
					c-1.7,8.1-2,16.3-0.9,24.4c0.8,10.6,1.5,20.6-3.5,29.5c-7.4,13.3-23.7,18.5-40.9,24.1c-13.4,4.3-27.2,8.7-37.1,17.3
					c-18.3,15.6-18.9,39.2-19.6,62c0,2.4,0,4.8-0.2,7.2c-0.4,11.7-4.3,50.3-35.6,57.3c-31.3,7-55.6-24.5-66.9-53.6
					c-13.1-33.3-29.4-52.1-50-57.3c-17.6-4.5-38.2,1.2-61.4,17.1c-53,36.3-97.4,44.1-158.4,27.8c-13.7-3.6-26.7-8.2-39.3-12.6
					c-27.7-9.8-53.9-18.9-86.4-18.8s-63,4.5-93.1,8.7c-47.6,6.7-92.4,13-142.4,4.5c-8.1-1.4-16.3-3.1-24.3-4.7
					c-19.1-3.9-38.8-8.1-58.9-8.1c-26-0.2-58.9,7.9-73.7,31.3c-10.3,16.3-9.1,35.6-8,54.2c1.2,19.9,2.3,38.6-9,54.2
					c-8.5,11.6-22,18.7-36.3,26.2c-13.1,6.9-26.6,14-35.7,24.8c-12.6,15-14.4,33.9-16,52.2c-0.6,11-2.4,21.9-5.4,32.7
					c-10.9,33.9-44.7,57-77.5,79.4l-3.4,2.4v4.1c1.9-1.3,3.8-2.7,5.7-3.9c33.2-22.7,67.5-46.2,78.7-81.1c3-10.9,4.9-22.1,5.5-33.3
					c1.7-18.7,3.3-36.3,15.3-50.6c8.7-10.3,22-17.3,34.6-24c14-7.4,28.6-15,37.5-27.2c12-16.4,10.8-36.6,9.4-56.1
					c-1.1-18.2-2.2-37,7.5-52.5c14.3-22.4,45.9-30.2,70.7-29.8c19.6,0.2,39.1,4.2,58,8.2c8,1.6,16.3,3.3,24.4,4.7
					c50.6,8.6,97.9,2,143.6-4.5c29.9-4.2,60.7-8.5,92.6-8.7c31.8-0.2,57.6,8.9,85,18.5c12.6,4.5,25.7,9,39.6,12.8
					c61.5,16.4,108.4,8.2,161.8-28.4c22-15.2,41.7-20.7,58-16.4c19.1,4.9,35,23.5,47.2,55.3c11.8,30.4,37.6,63.2,71.3,55.7
					c33.7-7.5,37.8-48,38.4-60.3c0-2.4,0.1-4.8,0.2-7.2c0.6-22.2,1.3-45.1,18.5-59.8c9.4-8,22.9-12.4,35.8-16.4
					c17.2-5.5,34.9-11.3,43-25.7c5.4-9.7,4.6-20.6,3.9-31.1c-1-7.8-0.7-15.7,0.8-23.5c3.4-12.7,14.1-22.4,30.1-27.4
					c11.8-3.4,24.4-4.4,36.7-2.7c12.3,1.6,24,5.8,34.2,12.1c26.6,17.7,41.1,45.4,55.2,72.1C1346.8,287.4,1350.3,294,1353.9,300.4z"
					/>
			</g>
			<path class="st1" d="M1457,844.4c-15.3,3.2-29.7,9.2-42.2,17.6h3.4c11.6-7.5,24.8-12.9,38.8-15.9L1457,844.4L1457,844.4z"/>
			<path class="st1" d="M1457,834.1c-23.8,0.6-48.7,6.3-78.7,27.3l-0.8,0.6h3.2c29.3-20.1,53-25.6,76.3-26.1V834.1z"/>
			<path class="st1" d="M1457,825.2c-31.3-0.2-61.8,1.2-103.3,27.2c-5,3.1-9.7,6.3-14.4,9.6h3.2c4-2.7,8.1-5.5,12.4-8.2
				c40.9-25.6,71.2-27.1,102.1-26.8L1457,825.2z"/>
			<path class="st1" d="M1457,812.6c-7.7,0.8-15.1,1.4-22.4,2c-31.8,2.4-61.8,4.8-105.5,28.8c-11,6.1-21.3,12.4-31.3,18.6h3.4
				c9.3-5.7,18.9-11.6,29-17.2c43.2-23.8,73-26.1,104.6-28.5c7.3-0.5,14.6-1.1,22.2-1.9L1457,812.6z"/>
			<path class="st1" d="M1457,792.7c-17.1,4.6-34.5,8.3-52.1,11.2c-29.7,5.3-57.8,10.2-100.3,30.4c-8.2,3.9-16,7.8-23.5,11.6
				c-11.5,5.7-22.5,11.2-33.5,16.1h4.3c9.9-4.5,19.9-9.4,30.2-14.6c7.6-3.8,15.4-7.7,23.5-11.5c42.2-20.1,70.1-25,99.8-30.1
				c17.4-2.8,34.7-6.5,51.7-11L1457,792.7L1457,792.7z"/>
			<path class="st1" d="M1457,764.1c-6.7,3.9-13.8,7.2-21.1,9.9l-1.1,0.4c-2.4,0.8-4.7,1.7-7,2.5c-21.1,7.2-38.2,12.1-54.8,17
				c-31.7,8.8-62.7,19.3-92.9,31.3l-2.7,1.1c-45.8,18.3-81.9,32.7-133.9,30.4c-17.8-0.8-36.2-4.5-55.7-8.4
				c-12-2.4-24.5-4.9-36.8-6.7c-25.3-3.7-51.2-2.7-76,3c-15.2,3.4-29.5,9.2-42.2,17.2h3.5c12-7.2,25.3-12.4,39.4-15.6
				c24.5-5.7,50.2-6.7,75.2-3c12.2,1.8,24.7,4.2,36.7,6.7c19.5,3.9,38,7.6,56,8.5c52.5,2.3,88.9-12.2,134.9-30.6l2.7-1.1
				c30.1-12.1,61-22.5,92.6-31.3c16.6-4.8,33.8-9.8,54.9-17c2.3-0.8,4.6-1.6,7-2.5l1.1-0.4c7.1-2.7,13.9-5.8,20.3-9.5L1457,764.1z"
				/>
			<path class="st1" d="M1457,723.9c-15.4,14.7-34,26.6-54.6,35.2l-2.6,1.1l-5,2.1c-15,6-27.6,11.3-39.8,16.4
				c-32.3,14.1-65.5,26.6-99.4,37.4c-45.5,14.6-84,22.4-135.8,16.2c-16-2.3-31.7-5.3-47.2-9.3c-13.5-3.1-27.5-6.4-41.3-8.6
				c-24.4-4-49.5-3.4-73.5,1.9c-37.1,8.2-52.8,25.3-69.5,43.4l-1.9,2h2.6l0.9-0.9c16.5-17.9,32.1-34.8,68.5-42.8
				c23.8-5.2,48.6-5.9,72.7-1.8c13.8,2.2,27.7,5.5,41.2,8.5c15.6,3.9,31.5,7,47.5,9.3c52.2,6.2,91-1.6,136.8-16.4
				c34-10.8,67.2-23.4,99.6-37.5c12.2-5.2,24.8-10.5,39.8-16.4c1.7-0.7,3.3-1.4,5.1-2.1l2.6-1.1c20.2-8.5,38.4-20.1,53.8-34.3
				L1457,723.9z"/>
			<path class="st1" d="M1457,679.9c-5.8,4.7-10.6,9.4-15.8,14.4c-5.1,5-10.9,10.6-17.9,16.4c-16.5,13.1-34.8,24.4-54.5,33.6
				l-3.7,1.8l-3.5,1.6c-15.6,7.3-28.3,14.7-40.7,21.7c-25,14.3-48.5,27.9-90.1,37.9c-45.1,11-84.1,11.2-134.9,1
				c-12-2.4-24.3-5.8-37.2-9.2c-15.6-4.5-31.5-8.3-47.6-11.3c-23.4-4.4-47.6-4.2-70.9,0.7c-37.8,8-51.1,25.7-65.4,44.4
				c-7.5,10.8-16.6,20.6-27.1,29.3h3.1c9.9-8.5,18.5-18,25.8-28.3c14-18.4,27.3-35.8,64.2-43.6c23-4.8,47-5,70.1-0.7
				c15.9,2.7,31.9,7.1,47.3,11.3c13,3.5,25.2,6.8,37.4,9.3c51.1,10.2,90.4,9.9,135.8-1c41.8-10.1,65.5-23.7,90.6-38.1
				c12.3-7,25-14.4,40.5-21.6c1.2-0.5,2.3-1.1,3.5-1.6l3.7-1.8c19.9-9.2,38.3-20.6,54.9-33.9c7.1-5.8,12.6-11.2,18-16.4
				c4.7-4.5,9.1-8.8,14.2-13.1L1457,679.9z"/>
			<path class="st1" d="M13,862c-4.5-8.2-8.7-16.8-12.9-25.7v4.5c3.5,7.2,7,14.3,10.7,21.2H13z"/>
			<path class="st1" d="M1457,656.5c-2.5,1.1-5,2.2-7.4,3.3c-5.6,2.7-11.1,5.5-17.1,9.1c-10.1,5.8-18.5,11.7-27.4,18
				c-5,3.5-10.1,7.2-15.8,11c-17.3,11.3-35.3,21.8-53.9,31.5l-5.3,2.9l-1.4,0.8c-13.3,7.6-26,16.1-37.8,25.4
				c-22.8,17.1-44.4,33.5-84.5,39.8c-45.6,7.3-85,0-134-14.3c-8-2.3-16-4.9-24.4-7.6c-18.4-6.3-37.3-11.5-56.5-15.7
				c-22.5-4.8-45.9-4.9-68.4-0.5c-38.2,7.8-49.3,26-61,45.2c-6.8,11.2-13.9,22.8-26.7,33c-2.9,2.3-6,4.3-9.3,6.1
				c-11.9,5.8-24.5,10.3-37.6,13.5c-4.8,1.3-9.4,2.7-14.1,4.1h6.1l8.6-2.4c13.3-3.2,26.1-7.8,38-13.7c3.4-1.8,6.5-3.9,9.4-6.3
				c13.1-10.5,20.2-22.2,27.1-33.5c11.5-18.9,22.4-36.7,59.8-44.3c22.3-4.4,45.4-4.2,67.5,0.5c19.1,4.2,37.9,9.4,56.3,15.7
				c8.5,2.7,16.5,5.3,24.5,7.6c49.2,14.3,88.9,21.7,134.9,14.4c40.7-6.5,62.4-22.9,85.5-40.2c11.7-9.2,24.2-17.7,37.3-25.2l1.4-0.8
				c1.7-1,3.5-1.9,5.2-2.7c18.6-9.7,36.7-20.3,54-31.6c5.7-3.8,10.9-7.5,15.8-11c8.7-6.4,17.8-12.3,27.2-17.9c6.1-3.5,11.5-6.4,17-9
				c2.1-1,4.3-1.9,6.3-2.9L1457,656.5z"/>
			<path class="st1" d="M30,862c-10.4-13.8-19.9-28-28.4-42.6L0,816.7v3.8c8.3,14.2,17.5,28.1,27.5,41.5H30z"/>
			<path class="st1" d="M1457,641.6c-11.6,3.8-23.6,7.6-34.9,12c-5.6,2.2-11.5,4.6-18,7.4c-17.3,7.5-32.4,15.3-48.9,24
				c-18.1,9.6-36.8,19.5-53.3,29.4c-2.1,1.3-4.2,2.7-6.3,3.9c-12.5,8.5-23.9,18.2-34.2,28.7c-20.8,20.1-40.5,39.2-79.5,42.1
				c-48,3.6-89.3-12.5-133-29.6l-6.5-2.5c-22.8-8.9-46.3-18.2-70.7-23.5c-21.5-5.1-44.1-5.7-65.9-1.7c-38.7,7.5-47.2,26.2-56.7,45.9
				c-5.4,11.5-10.9,23.4-22.6,34c-2.6,2.3-5.5,4.4-8.6,6.3c-10.4,5.5-21.5,9.9-33.1,13c-16.9,5.3-32.9,10.2-42.8,21.9
				c-2.5,2.9-4.8,5.9-7,8.9h2.4c2-2.7,4.1-5.3,6.3-7.8c9.4-11.3,25.2-16.2,41.9-21.4c11.8-3.1,23.1-7.6,33.6-13.2
				c3.2-1.9,6.2-4.1,8.9-6.5c12-10.8,17.6-22.9,23-34.5c9-19.3,17.5-37.6,55.1-44.9c21.5-3.9,43.8-3.3,64.9,1.7
				c24.2,5.3,47.7,14.5,70.4,23.4l6.3,2.5c44.1,17.2,85.5,33.4,134.1,29.7c39.8-3,59.8-22.3,80.8-42.7c10.2-10.5,21.5-20,33.9-28.5
				c2-1.3,4.1-2.7,6.3-3.9c16.4-9.9,35.1-19.8,53.2-29.3c16.5-8.7,31.5-16.4,48.7-23.9c6.5-2.7,12.4-5.2,18-7.4
				c11.1-4.3,22.7-8.2,34.1-11.8L1457,641.6z"/>
			<path class="st1" d="M45.8,862h2.7c-14.1-13.8-26.8-28.6-38-44.3c-3.6-4.9-7.1-9.9-10.5-14.9v3.4c2.9,4.2,5.8,8.3,8.8,12.4
				C19.7,833.9,32.1,848.4,45.8,862z"/>
			<path class="st1" d="M1457,629.4c-10.8,3.2-22.1,6.5-33.6,9.8c-56.9,16.4-121.4,34.8-160.6,64.5c-12,9.1-21.4,20.7-30.6,31.9
				c-18.9,23.1-36.6,45-74.5,44.6c-44.3-0.5-84.3-20.7-123-40.2l-9.1-4.6c-40.9-20.5-89.2-40.4-136.3-31.8h-0.4
				c-39.1,7.2-45.4,26.4-52.1,46.6c-3.9,11.8-7.9,24.1-18.5,35c-9.4,9.5-23.4,14.4-37.1,19.2c-16.3,5.6-33.1,11.5-42.3,25.1
				c-6.4,10.1-12.1,20.4-17.2,31.1c-0.3,0.5-0.5,1-0.7,1.4h2.2l0.4-0.7c5-10.6,10.7-20.8,17.1-30.8c8.8-13.2,25.2-18.8,41.3-24.4
				c13.9-4.8,28.3-9.8,37.8-19.6c10.9-11.2,15-23.6,18.9-35.6c6.7-20.6,12.6-38.4,50.4-45.4h0.4c46.5-8.4,94.2,11.2,134.9,31.6
				l9.1,4.6c39,19.7,79.2,40,124,40.5c39,0.4,57.1-21.9,76.2-45.3c9-11.1,18.4-22.7,30.2-31.6c39.1-29.5,103.4-47.9,160.1-64.2
				c11.3-3.3,22.4-6.4,33-9.6V629.4z"/>
			<path class="st1" d="M66.1,862h2.8c-27-20.2-50.3-43.9-68.9-70.3v2.7C18.2,819.6,40.4,842.4,66.1,862z"/>
			<path class="st1" d="M1457,606.2c-15.8,5-32.9,9.9-50.8,15.1c-55.3,15.8-117.8,33.6-156.9,62c-11.6,8.4-20.8,19.2-29.8,29.4
				c-18.6,21.5-36.3,41.8-72.4,41.9c-41.9,0.2-80-16.8-113.6-31.9l-7.5-3.4l-14.5-6.4c-37.3-16.4-81.4-32-125.8-24.7
				c-3.9,0.7-7.8,1.4-11.6,2.3c-37.8,8.9-46.3,26.2-54.4,43.1c-4.7,9.8-9.4,19.9-20.2,28.3c-8.7,6.9-21.1,10.1-34.3,13.4
				c-17.4,4.4-35.3,9-45.9,22.8c-9.1,11.9-15.5,25.8-21.7,39.1c-3.3,7.2-6.7,14.5-10.4,21.3c-0.6,1.2-1.3,2.3-1.9,3.4h2.2
				c0.5-0.9,1-1.7,1.5-2.7c3.7-6.9,7.1-14.3,10.5-21.4c6.1-13.3,12.6-27.1,21.5-38.8c10.1-13.3,27.7-17.8,44.7-22.1
				c13.4-3.4,26-6.6,35.1-13.7c11-8.7,15.9-19,20.7-29c8.3-17.2,16.1-33.4,53-42c3.7-0.9,7.5-1.6,11.4-2.3
				c43.9-7.2,87.6,8.2,124.5,24.5c4.8,2.1,9.4,4.2,14.4,6.4l7.6,3.4c33.8,15.1,72.1,32.2,114.5,32c37.2-0.2,55.1-20.8,74-42.6
				c8.9-10.2,18.1-20.8,29.4-29.1c38.8-28.1,101.2-45.9,156.3-61.7c17.7-5,34.7-9.9,50.2-14.9L1457,606.2z"/>
			<path class="st1" d="M83.1,862h3.5c-31-19.3-57.4-43.5-77.9-71.4c-3.1-4-5.9-8-8.7-12.1v3.4c2.3,3.2,4.6,6.5,7,9.6
				C27.1,818.9,52.9,842.8,83.1,862z"/>
			<path class="st1" d="M1457,582.6c-3.3,1.2-6.6,2.3-9.7,3.3c-17.6,6-37.2,11.5-57.9,17.3c-53.7,15.2-114.6,32.4-153.5,59.5
				c-10.8,8.1-20.5,17.1-29.1,27c-18.4,19.8-35.9,38.4-70.2,39.1c-40.3,0.8-77.2-14-112.9-28.3l-7.9-3.2c-6.3-2.5-12.2-4.8-18.2-7.1
				c-37.2-14.1-81.4-27-126.7-16c-3.9,1-7.7,1.9-11.3,3c-36,10.2-46.6,25.3-56,38.7c-5.9,8.4-11.4,16.3-22.5,22.5
				c-8,4.4-18.9,6.2-30.7,8c-17.8,2.7-38,6-50.4,20.2c-11.5,13.3-18.2,29.8-24.8,45.9c-2.2,5.5-4.3,10.6-6.6,15.6
				c-4.1,9.7-9.8,18.9-16.9,27.2c-2.1,2.3-4.3,4.5-6.6,6.6h2.7c1.9-1.7,3.7-3.6,5.4-5.5c7.2-8.4,13-17.8,17.2-27.6
				c2.3-5.1,4.4-10.2,6.6-15.7c6.5-15.9,13.2-32.4,24.5-45.4c11.8-13.7,30.7-16.6,49.1-19.5c11.9-1.9,23.1-3.6,31.5-8.2
				c11.5-6.4,17.2-14.5,23.2-23c9.4-13.7,19.6-27.8,54.9-37.9c3.6-1,7.4-2,11.2-3c44.8-11,88.5,2,125.4,15.9
				c6,2.3,11.9,4.6,18.1,7.1l7.9,3.2c35.9,14.4,73.1,29.2,113.8,28.4c35.3-0.7,53-19.7,71.7-39.8c8.5-9.8,18.1-18.7,28.8-26.7
				c38.6-26.9,99.3-44.1,152.9-59.3c20.8-5.9,40.4-11.4,58-17.3c2.9-1,6-2,9-3.1L1457,582.6z"/>
			<path class="st1" d="M107.5,862h4.7c-40.9-16.8-74.7-44.1-103.3-83.5c-3.1-4.3-6.3-8.7-9-13.1v3.5c2.4,3.5,4.8,7,7.3,10.5
				C35.3,817.8,68.2,844.9,107.5,862z"/>
			<path class="st1" d="M22.5,0C17,7.5,9.2,13.4,0,17.3v2.1C10.3,15.2,18.9,8.6,24.9,0.2L22.5,0z"/>
			<path class="st1" d="M111.2,849.2c11.2,3.9,19.5,7,26.2,9.5c3.1,1.2,6.1,2.3,8.9,3.3h5.4c-4-1.4-8.3-3-13.4-4.9
				c-6.7-2.5-15-5.5-26.2-9.5c-40.8-14.3-74.3-40.8-102.5-81.1c-3.3-4.7-6.3-9.5-9.4-14.3v3.6c2.5,3.9,5,7.8,7.7,11.6
				C36.2,807.9,70,834.7,111.2,849.2z"/>
			<path class="st1" d="M1457,558.3c-10.5,4.5-21.4,8.4-32.4,11.7c-16.1,5.1-33.7,10.1-52.4,15.4c-52.1,14.7-111,31.2-149.7,56.9
				c-10.4,7.4-19.9,15.6-28.3,24.7c-18.3,18.1-35.6,35.3-68.1,36.4c-38.9,1.4-73-11-109.2-23.8l-9.8-3.5l-1.8-0.6
				c-7.5-2.7-14.6-5.1-21.7-7.4c-34.9-11.3-81-22.3-127.6-7.3c-3.7,1.2-7.4,2.4-11.1,3.6c-32.7,11-45.5,23.3-55.8,33.2
				c-7.6,7.3-14.2,13.7-26.6,17.7c-6.9,2.3-16.2,2.7-26,3.3c-19.5,1-41.5,2.2-55.8,16.9s-20.6,33.6-27.1,52.3
				c-1.2,3.5-2.4,6.9-3.6,10.2c-3.3,9.9-8.1,19.5-14.3,28.3c-6.6,9.3-15.8,17.1-26.8,22.6c-15.5,7.5-34.6,9.7-53.2,11.3
				c-7.9,0.7-15.1,0.9-21.3,1.1l-6.3,0.2l-6.9,0.2c-3.7,0-7.1,0.1-10.4,0.5h41.4l3.6-0.3c18.6-1.6,38.2-3.8,54-11.5
				c11.2-5.6,20.7-13.6,27.5-23.1c6.3-9,11.1-18.6,14.5-28.7c1.2-3.3,2.4-6.8,3.6-10.2c6.3-18.5,13-37.6,26.6-51.7
				c13.7-14.1,35.4-15.3,54.4-16.3c10-0.5,19.4-1,26.6-3.4c12.9-4.2,19.6-10.7,27.4-18.1c10.7-10.3,22.8-21.9,55.1-32.9l11.1-3.6
				c46-14.7,91.6-3.8,126.2,7.4c7.1,2.3,14.1,4.8,21.6,7.4l1.8,0.6l9.8,3.5c34.6,12.5,70.7,25.3,110,23.9
				c33.4-1.2,50.9-18.6,69.5-37c8.4-8.9,17.8-17,28-24.3c38.4-25.5,97.2-42.1,149-56.6c18.7-5.3,36.4-10.2,52.5-15.4
				c10.8-3.3,21.4-7.1,31.8-11.4L1457,558.3z"/>
			<path class="st1" d="M1457,530.3c-14.9,11.5-36.2,18-55.1,23.8c-14.1,4.3-29.2,8.5-45.3,13c-50.9,14.2-108.6,30.1-147.5,54.8
				c-9.9,6.6-19.1,14-27.4,22.1c-18.1,16.4-35.3,32.1-66,33.7c-37.8,1.9-70.9-8.8-106.1-20.1l-15.7-5c-9-2.7-16.5-5.1-24.1-7.2
				c-51.8-14-91.3-13.7-128.5,1.3l-10.9,4.3c-18.2,7-35.3,15.8-51,26.4c-11.8,7.7-19.5,12.7-35.3,14.3c-6.8,0.4-13.5,0.2-20.3-0.4
				c-20.3-1.3-45.7-2.9-62.5,12.5c-16.9,15.4-22.9,38.4-28.5,58.6l-1.4,4.9c-2.5,10.2-6.4,20.1-11.7,29.4
				c-5.6,10-14.1,18.5-24.6,24.7c-14.7,8.4-33.9,11.3-52.3,14.1h-0.6l-8.6,1.3c-7,1-13.1,1.9-18.2,3l-1.1,0.2
				c-12.9,2.9-18.9,4.2-31.2,13.9l-3.5,2.7c-1.9,1.5-3.9,3.2-6.3,4.9l-0.5,0.4h3.3c1.8-1.4,3.5-2.7,5.1-4l3.5-2.7
				c12-9.4,17.4-10.6,30.3-13.5l1.1-0.2c5-1.1,11-2,18-3l8.6-1.3h0.6c18.7-2.7,38-5.8,53.1-14.4c10.8-6.3,19.5-15,25.2-25.2
				c5.4-9.5,9.4-19.6,11.9-29.9l1.4-5c5.5-20.1,11.8-42.9,28-57.8c16.2-14.8,40.9-13.2,61-11.9c6.8,0.6,13.7,0.8,20.6,0.4
				c16.3-1.6,24.2-6.8,36.3-14.6c15.6-10.5,32.6-19.3,50.6-26.2l10.9-4.3c36.6-14.7,75.8-15.1,127.1-1.2c7.6,2.1,15.1,4.4,24.1,7.2
				c5.2,1.6,10.4,3.3,15.6,5c35.3,11.4,68.7,22.1,106.9,20.2c31.5-1.6,48.9-17.4,67.3-34.2c8.3-8,17.4-15.3,27.2-21.9
				c38.7-24.4,96.2-40.4,147-54.5c16-4.5,31.2-8.7,45.3-13c18.6-5.7,39.3-12.1,54.5-23.1L1457,530.3z"/>
			<path class="st1" d="M106.4,833c29.6,9.4,37.8,9.6,50.4,10c4.3,0.1,9.1,0.3,15.6,0.9c5.9,0.5,12.6,1.6,19.4,2.7
				c3.4,0.5,6.8,1.1,10.4,1.6c7,1,14,1.9,20.9,2.9c18.9,2.5,36.7,4.9,51.5,8.1c3.8,0.8,7.6,1.9,11.3,3h5.5
				c-5.3-1.9-10.7-3.5-16.3-4.7c-14.9-3.2-32.8-5.5-51.7-8.2c-6.9-0.9-13.9-1.9-20.9-2.7c-3.6-0.5-7.1-1.1-10.4-1.6
				c-7-1.1-13.6-2.1-19.6-2.7c-6.5-0.6-11.4-0.7-15.7-0.9c-12.3-0.4-20.3-0.6-49.6-9.9c-38.6-12.2-71.3-38.1-97.3-76.7
				c-3.5-5.2-6.7-10.5-9.8-15.8v3.7c2.5,4.3,5.2,8.5,8,12.8C34.3,794.4,67.4,820.5,106.4,833z"/>
			<path class="st1" d="M49.3,0C43,7.1,34.5,12.6,24.8,15.8C16.9,18.4,8.4,19.5,0,19.1v1.7c8.7,0.5,17.5-0.6,25.6-3.3
				C36.1,13.9,45.2,7.9,51.8,0H49.3z"/>
			<path class="st1" d="M75.6,0c-6.3,5.9-14.2,10.3-22.9,13C35.1,18.4,17.8,15.7,0,10.2V12c17.7,5.2,35.6,7.9,53.4,2.4
				c9.7-2.9,18.4-7.9,25.2-14.6L75.6,0z"/>
			<path class="st1" d="M1457,489.9c-4.8,8.5-11.2,16.3-18.9,23c-0.8,0.7-1.6,1.3-2.4,2c-14.8,11.2-35.9,17.4-56.4,23.3
				c-11.5,3.3-23.5,6.7-36.3,10.1c-50.4,13.7-107.4,29.4-147.1,53.1c-9.4,5.9-18.3,12.5-26.5,19.7c-18,14.9-35.1,29-64,30.9
				c-36.8,2.5-69.3-6.9-103.5-16.8c-6.8-2-13.9-4-20.9-5.9c-9.4-2.5-17.1-4.6-24.8-6.3c-51.7-11.4-91.6-8.2-129.4,10
				c-3.4,1.7-6.9,3.3-10.7,5c-14.7,6.6-25.9,12.3-34.8,16.8c-23.8,12.1-32.8,16.6-55.3,13.7c-3.8-0.5-8.4-1.4-13.3-2.4
				c-21.3-4.2-50.4-10.1-70.5,6.4c-19.5,15.9-24.9,42.8-29.2,64.5c-1.7,10.4-4.8,20.7-9.1,30.5c-4.5,10.4-12.3,19.6-22.4,26.5
				c-13,8.5-30.5,12.3-47.2,15.9L529,811c-9,1.7-17.8,4.1-26.2,7.3c-11.8,5.1-15.2,8.7-24.3,18.3l-2,2.2c-2.6,2.7-5.4,5.5-8.7,8.5
				l-4.3,3.6c-4.1,3.7-8.3,7.4-12.6,11h2.9c3.8-3.2,7.6-6.5,11.2-9.8l4.1-3.6c3.4-3,6.3-5.9,8.8-8.6l2-2.2
				c9.1-9.6,12.2-12.9,23.7-17.9c8.3-3.1,17-5.5,25.8-7.2l5.2-1.2c17.1-3.7,34.6-7.5,48.1-16.2c10.4-7,18.4-16.4,23.1-27.2
				c4.4-10,7.5-20.3,9.3-30.9c4.3-21.4,9.6-48,28.6-63.6c19-15.5,47.8-10.1,68.7-5.9c4.9,1,9.4,1.9,13.4,2.4
				c23.2,2.9,33-2,56.7-13.9c8.9-4.5,20.1-10.2,34.6-16.8c3.8-1.7,7.3-3.3,10.7-5c37.3-18.1,76.8-21.1,127.9-9.8
				c7.7,1.7,15.4,3.7,24.7,6.2c7,1.9,14.1,4,20.9,5.9c34.4,10,67,19.4,104.3,16.9c29.6-2,46.9-16.3,65.2-31.4
				c8.2-7.1,16.9-13.6,26.3-19.5c39.5-23.5,96.4-39.1,146.6-52.8c12.8-3.5,24.8-6.8,36.4-10.1c19.6-5.7,41.9-12.2,57-23.6
				c0.9-0.7,1.7-1.3,2.5-2c7.1-6,13-13,17.6-20.6L1457,489.9z"/>
			<path class="st1" d="M101.6,816.6c28.7,8.2,37.1,5.8,46.7,3.1c5.9-1.9,12-2.9,18.3-3.1c10.2,0.2,20.3,1.3,30.2,3.3
				c24.4,4.2,48.5,9.8,72.1,16.8c15.9,4.9,30.9,13.3,46.8,22.3l5.2,2.9h3.7l-7.8-4.2c-16-9-31.1-17.5-47.2-22.4
				c-23.7-7-47.9-12.7-72.4-16.9c-10.1-2-20.3-3.2-30.6-3.3c-6.4,0.1-12.8,1.2-18.9,3.1c-9.4,2.7-17.4,4.9-45.5-3.1
				c-37-10.6-68-35-92-72.6c-3.7-5.8-7.1-11.7-10.1-17.6v4.1c2.6,4.8,5.4,9.6,8.3,14.3C32.7,781.2,64,805.9,101.6,816.6z"/>
			<path class="st1" d="M1457,455.2c-3,2.7-5.9,5.6-8.6,8.6c-3.1,3.6-6.3,7.3-9,10.8c-7.5,9.3-14.6,18.1-26.2,26l-2.5,1.6
				c-14.6,9.2-34.3,14.6-53.4,19.8l-0.9,0.2l-23.8,6.5c-50.9,13.7-108.6,29-150.1,52.2c-8.9,5.2-17.5,11-25.5,17.2
				c-18,13.3-35,25.9-62.1,28.2c-36.1,3-67.7-5.3-101.3-14c-8.4-2.2-17.1-4.4-25.8-6.5c-7.6-1.8-16.6-3.8-25.6-5.5
				c-51.7-9-91.8-3.3-130.2,18.6c-3.4,1.9-7,3.9-10.5,5.7c-51.2,26.3-61.9,31.8-93.9,20.5l-5-1.8c-20.7-7.5-55.3-20.2-79.6-2.4
				c-19.7,14.4-25.2,40-28.3,65.5c-0.9,10.7-3.1,21.3-6.6,31.6c-3.5,11-10.5,20.8-20.3,28.4c-11.7,8.7-28,13.2-43.7,17.5l-8.6,2.4
				c-9.4,2.7-19.1,5.9-25.6,10.3c-6.1,4.2-10.9,9.8-13.8,16.1c-2,3.7-4.2,7.3-6.7,10.8c-2.3,3.3-4.9,6.5-7.7,9.4
				c-9.7,9.9-22.2,21.2-37.2,28.8h3.9c13.1-7.7,24.9-17,34.9-27.7c2.9-3,5.6-6.2,8-9.6c3.1-4.3,5-7.8,6.7-11
				c2.8-6.1,7.3-11.4,13.2-15.5c6.3-4.3,15.7-7.4,25-10.1l8.6-2.4c15.9-4.4,32.3-8.9,44.4-17.9c10-7.8,17.3-17.9,20.9-29.2
				c3.4-10.4,5.7-21.1,6.6-32c3.2-25.2,8.7-50.4,27.8-64.4c23.3-17.1,57.3-4.8,77.5,2.7l5.1,1.8c32.9,11.6,43.7,6.1,95.7-20.6
				c3.6-1.8,7.1-3.8,10.6-5.7c37.8-21.6,77.6-27.4,128.7-18.4c8.9,1.6,17.9,3.6,25.4,5.5c8.7,2.1,17.4,4.3,25.8,6.5
				c33.7,8.8,65.6,17.1,102,14.1c27.8-2.3,45-15.1,63.2-28.6c7.9-6.2,16.4-11.9,25.2-17.1c41.4-23.1,98.9-38.4,149.7-52.1l24-6.5
				l0.9-0.2c19.3-5.3,39.1-10.7,53.9-20.1l2.6-1.7c11.8-8.2,18.9-17,26.5-26.4c2.9-3.5,5.8-7.1,9-10.7c2.2-2.5,4.6-4.8,7-7.1
				L1457,455.2z"/>
			<path class="st1" d="M96.8,800.4c30.2,7.7,38.1,2.4,46.4-3.3c5-3.9,11.2-6.5,17.9-7.4c9.9-1.3,21.5,0.6,30.6,2.4
				c24.7,5.4,48.8,13,71.7,22.7c14.4,5.8,27.9,14.5,42.1,23.6c13.1,8.8,26.9,16.7,41.4,23.7h4.5c-15.7-7.2-30.7-15.6-44.7-25.1
				c-14.4-9.2-27.9-17.9-42.5-23.8c-23.1-9.8-47.2-17.4-72.1-22.8c-9.2-1.8-21.1-3.8-31.3-2.4c-7,0.9-13.6,3.6-18.9,7.8
				c-7.9,5.5-15.3,10.5-44.5,3c-44.6-11.3-71.9-43.4-86.9-68.3c-4-6.5-7.5-13.2-10.6-20v4.7c2.6,5.5,5.5,10.7,8.7,16.1
				C23.9,756.3,51.6,788.9,96.8,800.4z"/>
			<path class="st1" d="M102,0c-6.2,4.6-13.5,8.1-21.4,10.1c-23.1,6.3-46.9-0.9-69.9-7.8L2.7,0H0v1.1c3.4,1,6.8,1.9,10.1,3
				c23.3,7.1,47.4,14.2,71.1,7.8c8.9-2.3,17-6.4,23.8-11.8L102,0L102,0z"/>
			<path class="st1" d="M109.1,9c8-1.8,15.5-4.9,22.2-9h-3.6c-5.9,3.3-12.4,5.8-19.2,7.3C87.7,12.1,66.1,7,45.3,2.1
				C42.1,1.4,39,0.7,35.8,0h-8.3C33.3,1.2,39,2.5,44.7,3.8C65.9,8.8,87.8,13.9,109.1,9z"/>
			<path class="st1" d="M1457,439.6c-10.9,5.3-21,11.7-30.1,19.2c-2.9,2.4-5.6,4.8-8.4,7.2c-9,8.4-19.1,15.8-30.1,22.1l-2.5,1.3
				c-14.1,7.2-32,11.7-49.3,16.1l-6.1,1.5c-51.5,13.2-115.6,29.5-161.6,53.3c-8.4,4.5-16.5,9.4-24.3,14.7
				c-17.9,11.8-35,22.9-60.4,25.5c-35.4,3.6-66.5-3.8-99.5-11.5c-9.9-2.3-20-4.7-30.3-6.8s-18.9-3.5-26.3-4.5
				c-51.7-6.8-92.1,1.6-131.1,27.4c-3.4,2.2-6.8,4.4-10.3,6.3c-51.1,29.6-66,28.8-97.8,10.4c-37.4-21.6-65.3-25.6-85.5-12.4
				c-22.5,14.8-26.6,45-27.7,66.5v0.4c-0.2,10.9-1.5,21.7-3.9,32.4c-3.5,13.3-9.3,22.9-18.1,30.3c-10.7,9-26,14.1-40.9,19.2
				c-3.8,1.3-7.5,2.5-11.1,3.8c-8.9,3.2-18.9,7.2-24.9,13.4c-6,6.1-7.6,11.8-9.3,18.3c-1.2,5.1-2.9,10.1-5.3,14.9
				c-1.8,3.6-4.1,7.1-6.8,10.2c-19.7,23.2-54.3,44.2-92.3,33.6c-25.5-7.4-46.4-22.4-66.6-37.1c-11.9-9-24.5-17.2-37.8-24.5
				c-20.1-10.4-46.4-23.1-71.9-28.8c-13.4-3-23.6-3.5-31.9-1.5c-9.4,2.3-13.9,7.5-18.1,12.5c-6.9,8.2-13.4,16-44.3,9.1
				c-45.3-10.1-70.6-44.4-81.7-64C6.6,710.7,3,703,0,695.1v5.2c2.6,6.3,5.6,12.5,9,18.5c11.2,19.8,37,54.6,83,64.9
				c32.2,7.2,39.5-1.4,46.5-9.8c4-4.8,8.1-9.7,17-11.8c8-1.9,17.8-1.5,30.9,1.5c25.2,5.6,51.4,18.2,71.4,28.6
				c13.2,7.3,25.7,15.4,37.4,24.4c20.4,14.7,41.4,29.9,67.4,37.2c39,11,74.4-10.5,94.5-34.2c2.8-3.3,5.2-6.8,7.1-10.6
				c2.4-4.9,4.2-10,5.4-15.2c1.6-6.3,3.1-11.8,8.8-17.6c5.7-5.8,15.5-9.8,24.2-12.9c3.6-1.3,7.3-2.5,11.1-3.8
				c15-5,30.5-10.1,41.5-19.4c9.1-7.7,15.1-17.6,18.7-31.2c2.4-10.8,3.7-21.7,3.9-32.7v-0.4c1.1-21.1,5.1-50.9,27-65.2
				c19.4-12.8,46.6-8.7,83.2,12.4c34.1,19.7,50.9,18,100-10.4c3.5-2,7-4.1,10.4-6.4c38.5-25.3,78.5-33.7,129.6-27
				c7.4,1,15.7,2.4,26.1,4.5c10.4,2.1,20.4,4.5,30.3,6.8c33.1,7.8,64.4,15.1,100.2,11.5c26.1-2.7,43.2-13.9,61.5-25.9
				c7.7-5.2,15.7-10.1,24.1-14.6c45.9-23.8,109.8-40.1,161.2-53.2l6.1-1.5c17.4-4.4,35.4-9,49.7-16.3l2.6-1.4
				c11.1-6.4,21.3-13.9,30.4-22.4c2.7-2.4,5.4-4.7,8.3-7.1c8.7-7.1,18.3-13.4,28.7-18.5L1457,439.6z"/>
			<path class="st1" d="M137,6.2c7-1.3,13.7-3.4,20.1-6.2h-4.5c-5.1,2-10.5,3.5-16,4.5h-0.3C118.1,7.8,99,4.7,80.6,1.8
				C76.8,1.2,72.9,0.6,69.1,0H54.3c8.7,0.7,17.4,2.1,26,3.5C99,6.5,118.4,9.7,137,6.2z"/>
			<path class="st1" d="M0,8.8C9.9,4.2,20.8,1.2,31.9,0h-11C13.6,1.5,6.6,3.8,0,6.9V8.8z"/>
			<path class="st1" d="M1457,431.2c-4.6,1.6-9.1,3.3-13.4,4.9c-13.3,4.9-26.1,10.9-38.1,17.8l-4.2,2.4
				c-11.8,7.4-24.4,13.9-37.5,19.4l-2.5,1c-14.2,5-28.8,9.1-43.7,12.2l-6.3,1.5c-43.2,10.2-106.4,26.3-155.4,49.6
				c-7.9,3.8-15.4,8-22.7,12.2c-18.1,10.3-35.2,20.1-59.2,22.9c-34.9,4.2-65.5-2.3-98-9.2c-11.2-2.4-22.7-4.8-34.5-6.8
				c-10.3-1.7-19.1-2.9-27-3.6c-52.7-4.6-92,6.1-132.1,36c-3.3,2.5-6.7,4.9-10.1,7c-48.1,31-68.5,27-101.8,0.3
				c-12-9.6-53.8-39.7-86.4-20.5c-18.4,11-27.5,33.6-27,67.5v2.3c0.5,10.5,0,21.1-1.4,31.5c-2.4,14.1-7.5,24.3-15.9,32.3
				c-9.9,9.3-24.5,15-38.6,20.5c-4.3,1.7-8.9,3.4-13,5.2c-12.6,5.5-19.8,10.3-24.2,16.4c-5.2,7.2-5.5,14.2-5.9,21.6
				c0,6.1-0.9,12.1-2.8,18c-1.4,3.9-3.4,7.7-5.9,11.1c-17.7,24.1-56.7,43.3-94.5,31.6c-27.1-8.5-48.4-25.8-69-42.6
				c-10.3-8.8-21.2-17-32.6-24.7c-19.8-12.7-46-28.3-71.6-34.7c-13.3-3.3-23.9-3.5-32.5-0.5c-9.7,3.3-13.4,10.3-17.1,17
				c-6,11.1-11.6,21.6-44.4,15.3c-31.5-6-59.8-28.4-76.5-59.8c-4.7-9-8.5-18.4-11.2-28v6.7c2.5,7.5,5.7,14.8,9.4,21.9
				c16.7,32,45.8,54.8,77.8,60.8c34.4,6.6,40.6-5,46.7-16.2c3.6-6.7,7-13,16-16.2c8.2-2.7,18.4-2.7,31.2,0.6
				c25.2,6.3,51.2,21.7,71,34.4c11.4,7.6,22.2,15.8,32.4,24.5c20.8,16.9,42.2,34.4,69.7,43c39,12.2,78.2-7,96.8-32.3
				c2.7-3.6,4.8-7.5,6.3-11.5c1.9-6,2.9-12.2,2.9-18.4c0.3-7.5,0.6-13.9,5.5-20.7c4.2-5.8,11.2-10.5,23.4-15.8
				c4.2-1.8,8.4-3.5,13-5.2c14.3-5.5,29.1-11.3,39.3-20.9c8.7-8.2,14-18.8,16.4-33.2c1.4-10.6,1.9-21.2,1.4-31.8v-2.3
				c-0.5-33.3,8.3-55.5,26.1-66c31.3-18.5,72.1,11,83.8,20.4c32.7,26.2,54.4,32,104.3-0.2c3.4-2.2,6.8-4.6,10.2-7.1
				c39.5-29.6,78.5-40.2,130.5-35.6c7.8,0.7,16.6,1.9,26.8,3.6c11.7,2,23.2,4.4,34.4,6.8c32.6,6.9,63.5,13.5,98.7,9.2
				c24.5-2.9,42.5-13.2,60-23.2c7.2-4.1,14.7-8.4,22.5-12.1c48.9-23.2,111.9-39.3,155-49.4l6.3-1.5c15-3.1,29.8-7.2,44.1-12.2l2.6-1
				c13.2-5.6,25.8-12.1,37.8-19.5l4.2-2.4c12-6.9,24.6-12.8,37.8-17.6c4.1-1.6,8.3-3.1,12.6-4.6L1457,431.2z"/>
			<path class="st1" d="M804.6,13.3c8.5,4.5,18.4,6.5,28.3,6c1.7-0.1,3.3-0.3,4.9-0.6c5.8-0.9,11.2-3.4,15.4-7c3.4-3.3,6.2-7,8.4-11
				l0.5-0.8h-2.3c-2.1,3.8-4.8,7.4-8.1,10.5c-5.1,4.2-11.8,6.8-18.9,7.1c-9.5,0.5-18.9-1.5-27-5.8c-6.1-3.2-11.5-7.2-16.3-11.8h-2.8
				C792,5.2,797.9,9.7,804.6,13.3z"/>
			<path class="st1" d="M14.9,522.8v-0.2c1-8,1-16,0-24c-3.4-23.1-8.4-46-15-68.6v7c5.7,19.9,9.4,40.7,13,61.9c1,7.8,1,15.8,0,23.6
				v0.2c-1.2,13.7-4.1,28.2-7.2,43.5c-2,9.9-4.1,20.1-5.7,30.5v15.1c1.7-15.6,4.8-30.8,7.7-45.3C10.8,551.1,13.7,536.6,14.9,522.8z"
				/>
			<path class="st1" d="M0,179.4c2.9-2.2,5.6-4.7,8.1-7.3c19.1-21.4,13.1-47.5,7.2-72.8C9.9,75.8,4.2,51.6,18.8,31.4
				C29.2,16.9,47.9,6.5,70.3,2.8c15.2-2.6,31-1.2,47.6,0.2c15.5,1.3,31.5,2.5,46.9,0.5c5.7-0.8,11.3-1.9,16.8-3.4h-7.3
				c-3.2,0.7-6.3,1.3-9.8,1.7c-15.1,2-31.1,0.7-46.5-0.5c-5.3-0.4-10.7-0.8-16.1-1.2H79.2c-3.2,0.2-6.3,0.6-9.4,1.1
				c-22.6,3.6-42,14.4-52.7,29.3C2,51.3,7.6,75.8,13.3,99.6c5.8,24.9,11.8,50.7-6.8,71.4c-2,2.2-4.1,4.2-6.5,6.1V179.4z"/>
			<path class="st1" d="M1457,424.2c-11,4.4-22.7,8.2-34.5,12c-13.4,4.2-26.4,8.2-38.6,12.8c-14.7,5.4-29.7,10.2-45,14.4l-2.6,0.7
				c-10.7,2.7-22.5,5.2-34,7.5l-13.9,2.9c-50.4,10.5-99.4,25.6-146.1,45.1c-7,3-13.7,6.2-20.2,9.4c-18.5,8.9-35.9,17.3-58.7,20.5
				c-34.5,4.8-64.8-1-96.8-7.1c-12.4-2.4-25.2-4.8-38.4-6.6c-10.3-1.4-19.3-2.3-27.7-2.7c-52.8-2.7-92.6,10.7-132.8,44.6
				c-3.2,2.7-6.6,5.3-9.9,7.7c-47.9,34.2-74,23.1-106-9.8c-22-22.8-58.3-44-87.1-28.7c-25.2,13.4-28.3,44.6-26.3,68.5l0.4,4.3
				c1.1,10.2,1.4,20.4,0.9,30.7c-1.2,14.8-5.6,25.6-13.7,34.2c-9.2,9.7-23.3,15.9-36.8,21.9c-4.9,2.1-9.9,4.4-14.5,6.7
				c-8.3,4.2-18.6,10.2-23.5,19.4c-4.5,8.4-3.6,16.6-2.6,25.3c1.1,6.9,1,13.8-0.2,20.7c-0.9,4.2-2.6,8.2-5,12
				c-15.7,25-58.4,42.8-96.5,29.6c-28.8-10-50.4-30-71.6-49.3c-8.8-8.2-18-16.4-27.3-23.8c-27.6-21.5-51.6-35.2-71.4-40.7
				c-13.4-3.7-24.3-3.6-33.1,0.4c-9.8,4.4-12.9,13.1-16,21.4c-5,14-9.8,27.2-44.6,21.6c-35.6-5.7-60.2-32.4-71.3-55.5
				C5.6,681.7,1.7,668.5,0,655v11.6c2.1,9.8,5.3,19.4,9.7,28.5c11.3,23.5,36.4,50.7,72.8,56.5s41.8-8.7,46.9-22.8
				c3.1-8.4,5.9-16.3,15-20.4c8.4-3.8,18.7-3.9,31.5-0.3c19.6,5.5,43.3,19,70.7,40.3c9.4,7.3,18,15.3,27.2,23.7
				c21.2,19.5,43.1,39.6,72.3,49.7c39.1,13.7,82.8-4.7,99.1-30.4c2.5-3.9,4.2-8.1,5.2-12.5c1.3-7,1.3-14.1,0.2-21.2
				c-0.9-8.4-1.8-16.4,2.5-24.4c3.7-6.9,10.6-12.6,22.7-18.7c4.6-2.3,9.4-4.5,14.4-6.7c13.8-6.1,28-12.4,37.5-22.4
				c8.4-8.9,12.9-20.1,14.2-35.2c0.5-10.3,0.2-20.6-0.9-30.9l-0.3-4.4c-1.9-23.4,1-54,25.2-66.9c27.7-14.7,63,6.1,84.5,28.4
				C683,610,710,621.6,759,586.5c3.3-2.4,6.7-5,10-7.8c39.9-33.6,79.1-46.8,131.3-44.1c8.3,0.4,17.3,1.3,27.5,2.7
				c13.1,1.8,25.9,4.2,38.2,6.6c32.3,6.2,62.7,12,97.6,7.1c23.2-3.2,41.6-12.1,59.4-20.7c6.5-3.1,13.2-6.4,20.1-9.3
				c46.6-19.4,95.4-34.4,145.7-44.9l14.1-2.9c11.5-2.3,23.3-4.7,34.1-7.6l2.5-0.7c15.3-4.1,30.4-9,45.1-14.4
				c12.1-4.5,25.2-8.6,38.5-12.8c11.4-3.6,22.9-7.4,33.8-11.7L1457,424.2z"/>
			<path class="st1" d="M767.2,75.4c10,4.1,21.2,5.5,32.2,3.9c0.5-0.1,1-0.1,1.5-0.2c8.3-1.3,15.8-5,21.4-10.4c4-4.3,7.2-9,9.6-14.1
				c2-4.1,4.5-7.9,7.4-11.6c13.9-16.6,40.3-20.3,68.3-24.3c6.6-0.9,13.4-1.9,20-3c15.7-2.7,25-8.9,34.3-15.7h-3.1
				c-8.8,7.1-19.7,11.9-31.5,14c-6.5,1.2-13.3,2.1-19.9,3c-27.3,3.8-55.4,7.8-69.8,25c-2.9,3.8-5.5,7.7-7.6,11.9
				c-2.3,4.9-5.5,9.5-9.3,13.7c-5.7,5.5-13.4,9-21.8,10.1c-10.5,1.4-21.3,0.1-31-3.8c-15.7-6.4-30-19.2-42.3-38.2
				c-7.3-11.4-13.4-23.3-18.1-35.6h-2.1c4.8,12.7,11,24.9,18.5,36.5C736.5,55.7,751.1,68.7,767.2,75.4z"/>
			<path class="st1" d="M33.9,199.9c-11,3.2-22.4,5.5-33.9,6.9v1.8c11.8-1.3,23.4-3.7,34.6-7c11.4-3.3,21.6-9.4,29.2-17.5
				c20.2-22.1,11.1-50,2.4-77c-8-24.5-16.3-49.8-3.6-71.6c8.1-13.9,23.7-24.4,43.9-29.9c17.1-4.4,36.6-4.4,55.5-4.4
				c10.1,0,20.6,0,30.6-0.7c2.4-0.1,4.8-0.4,7.2-0.6h-64.5C125.4,0.3,115.6,1.6,106,4C85.3,9.6,69.3,20.4,60.9,34.8
				c-13.2,22.4-4.7,48,3.4,72.8c9,27.8,17.6,54-2,75.4C54.8,190.8,45,196.7,33.9,199.9z"/>
			<path class="st1" d="M1457,413.1c-16.3,11.6-37.5,18.8-55.4,23.2c-13.7,3.3-27.3,5.8-39,7.9c-10.9,1.9-21.4,3.3-32.5,4.8
				c-5.1,0.7-10.3,1.3-15.7,2.1l-2.6,0.4c-14.9,2.1-30.7,4.4-46,7.2c-52.3,9.8-103.1,27.8-136.8,40.5c-5,1.9-10,3.9-14.9,5.8
				c-19.8,7.9-38.6,15.3-61.1,18.9c-34.1,5.5-64.2,0.4-96-5.1c-13.5-2.4-27.5-4.8-41.9-6.3c-9.4-1-18.9-1.7-28.3-1.8
				c-53.3-0.7-93.3,15.2-133.7,53.3c-3.1,3.1-6.6,5.9-9.7,8.4c-19.1,15.2-36.4,21.8-52.7,20.1c-18.7-1.9-36.8-14.6-57.1-40
				c-21-26.3-56.7-51.8-87.9-36.9c-30,14.2-27.8,53.3-25.5,69.5l0.9,6.4c1.7,9.8,2.7,19.7,2.9,29.7c0,15.5-3.7,27-11.6,36.2
				c-8.7,10.1-22.3,16.9-35.5,23.4c-5.2,2.6-10.6,5.3-15.6,8.1c-8.4,4.8-18.5,11.7-22.7,22.4c-3.8,9.7-1.7,19.2,0.6,29.2
				c2.1,7.5,3,15.3,2.5,23.1c-0.5,4.5-1.9,8.8-4.1,12.9c-15.1,27.8-63,41.1-98.7,27.6c-30.7-11.7-52.9-34.8-74.3-57
				c-7.1-7.4-14.4-15-21.8-21.9c-14.8-13.9-43.7-38.4-71.2-46.6c-13.4-4-24.8-3.6-33.7,1.4c-9.9,5.5-12.4,15.8-14.8,25.7
				c-4.1,16.8-7.9,32.7-44.9,28.1c-28.3-3.5-54.2-23.6-66.1-51.2C-7,638.4,8.7,593.9,22.5,554.5c4.2-11.9,8.1-22.9,11.1-33.8
				c2.4-7.8,4-15.8,5-23.9c4.8-51.3-3.1-90.9-24.4-120.9c-4.3-6-9.1-11.8-14.2-17.3v2.7c4.5,4.9,8.8,10.1,12.6,15.4
				c21,29.7,28.8,68.8,24.1,119.8c-0.9,8-2.6,15.9-4.9,23.7c-3.1,11-6.9,21.9-11.1,33.6C6.7,593.6-9,638.5,10,683
				c12.2,28.2,38.7,48.7,67.7,52.3c38.9,4.8,43.1-12.6,47.2-29.5c2.4-10,4.7-19.5,13.9-24.7c8.6-4.7,18.9-5.1,32-1.2
				c28,8.5,58.5,35.3,70.3,46.2c7.4,6.9,14.7,14.5,21.7,21.9c21.6,22.4,43.9,45.6,75.1,57.5c36.6,13.9,85.8,0.1,101.3-28.5
				c2.3-4.2,3.8-8.8,4.3-13.5c0.5-7.9-0.3-15.9-2.5-23.6c-2.2-9.8-4.3-19-0.6-28.3c3.1-7.9,9.9-14.6,22-21.5
				c4.9-2.7,10.3-5.5,15.5-8c13.4-6.6,27.2-13.5,36.1-23.9c8.2-9.6,12-21.4,12-37.2c-0.3-10-1.3-20-3-29.9c-0.3-2.1-0.6-4.3-0.9-6.4
				c-2.3-15.8-4.4-54,24.5-67.7c30.1-14.4,64.7,10.6,85.3,36.4c20.5,25.8,39.3,38.8,58.5,40.7c16.9,1.7,34.6-5.1,54.3-20.6
				c3.1-2.5,6.5-5.3,9.8-8.5c40-37.7,79.5-53.4,132.3-52.7c9.4,0.2,18.8,0.8,28.2,1.8c14.4,1.6,28.3,4,41.8,6.3
				c32,5.5,62.2,10.7,96.8,5.2c22.8-3.7,42.5-11.5,61.6-19c4.9-1.9,9.9-3.9,14.9-5.8c33.6-12.7,84.3-30.7,136.4-40.4
				c15.2-2.7,31-5.1,45.9-7.2l2.6-0.4c5.4-0.7,10.6-1.4,15.8-2.1c11.2-1.5,21.7-2.7,32.7-4.8c11.8-2.1,25.4-4.5,39.2-7.9
				c17.6-4.3,38.5-11.4,54.9-22.6L1457,413.1z"/>
			<path class="st1" d="M729.7,137.4c10.9,3.5,22.8,4.3,34.2,2.3c10.8-1.7,20.5-6.7,27.5-14.1c4.5-5.3,8.1-11.1,10.8-17.3
				c2.2-4.7,4.8-9.3,7.9-13.7c15.7-21,46-26.7,75.4-32.2c5.8-1.1,11.8-2.2,17.5-3.5c17.1-3.7,26.6-11.1,36.7-19
				c5.9-4.9,12.3-9.3,19.1-13.1c21.8-11.6,32.7-11.7,58.1-9c32.4,3.5,74.2,4.2,104.2-17.9h-3.1c-29.4,20.4-69.7,19.5-100.8,16.1
				c-25.9-2.7-37-2.7-59.3,9.2c-7,3.9-13.5,8.3-19.4,13.3c-9.8,7.8-19.1,15-35.8,18.6c-5.7,1.2-11.7,2.3-17.4,3.4
				c-29.8,5.5-60.6,11.4-76.7,32.9c-3.1,4.5-5.8,9.1-8,14c-2.6,6-6.2,11.7-10.5,16.9c-14.3,15.5-40.7,17.4-59.4,11.3
				c-17.8-5.9-33.9-18.5-47.8-37.6c-20-27-31.5-59.5-34.9-98.1h-2c3.6,38.9,15.1,71.7,35.1,99.1
				C695.1,118.6,711.5,131.5,729.7,137.4z"/>
			<path class="st1" d="M44.1,217.1c-15.1,1.1-30.5,2.2-44.1,5.8v1.7c13.3-3.6,28.5-4.7,44.3-5.8c28.5-2.1,58-4.2,75.2-22.7
				c21.3-22.9,9.8-51.2-2.4-81.3c-10.3-25.4-21-51.8-10.5-75.1C116.3,18.2,140.7,5,179.4,0h-11.6c-32.9,6.1-54.1,19.2-63,39
				c-10.8,23.9,0,50.6,10.5,76.4c12,29.6,23.4,57.5,2.7,79.6C101.2,213,72.3,215.1,44.1,217.1z"/>
			<path class="st1" d="M1441,272.8c3.7-8,9.1-15.2,16-21.4v-2.7c-7.7,6.7-13.8,14.6-17.9,23.4c-8.4,19.5-2,40.6,4.1,60.9
				c5.8,19.2,11.9,39.1,5.3,57.5c-9.2,26.3-40.3,40.7-66.8,45.5l-1.1,0.2c-20.9,3.6-42.7,3.1-63.8,2.6c-8.9-0.2-18.1-0.4-27.1-0.3
				c-55.7,0.6-104.2,16.7-151,32.4c-30.7,10.2-62.4,20.8-96.2,27.1l-1,0.2c-33.5,6.1-63,1.5-94.5-3.5c-14.5-2.3-29.5-4.6-45.2-5.9
				c-69.3-5.5-116.5,12.1-163.8,61c-19.9,20.6-39.5,30.4-58.2,29c-22-1.6-43.4-17.9-65.1-50c-20.1-29.6-55.3-59.2-88.6-45
				s-27.4,57.5-24.8,70.5l1.6,7.7c5,23.8,10.2,48.5-4.5,67.7c-8.1,10.5-21.3,17.8-34.1,24.7c-17.4,9.5-33.9,18.5-38.6,35.1
				c-3.1,11.1,0.4,22.4,3.8,33.3c3.1,8.2,4.8,16.7,5.1,25.3c-0.4,14.4-9.4,27.1-25.4,35.6c-22.7,12.1-55,13.7-78.7,3.8
				c-33-13.7-55.5-40.4-77.4-66.2c-5.2-6.2-10.6-12.5-16-18.6c-6.3-6.9-56.7-61.6-93.5-54.8c-4.2,0.8-8.2,2.4-11.7,4.6
				c-10,6.5-11.8,18.3-13.6,29.8c-3.1,19.6-6,38.2-45.2,34.8C46.2,714.8,21.7,696,12,670.2c-16.5-43.8,5.6-85.7,27-126.2
				c4.4-8.4,9-17.1,13.1-25.5c15.7-32.7,36.8-94.5,1.5-141.6C43,362.7,28.4,351.3,14,340.4c-4.7-3.6-9.4-7.4-14.3-11.2v2.5
				c4.3,3.5,8.6,6.8,12.9,10.2c14.2,11,28.8,22.2,39.2,36.1c34.8,46.6,13.9,107.6-1.7,140c-4,8.4-8.4,16.7-13.1,25.5
				c-21.5,40.7-43.8,82.9-27,127.4c10.2,26.5,35.3,45.9,62.7,48.2c40.9,3.5,44.3-16.8,47.2-36.4c1.8-11.6,3.5-22.5,12.8-28.6
				c28.8-18.7,77.9,22.6,102.4,49.9c5.4,6.1,10.8,12.4,16,18.6c22,25.9,44.7,52.8,78.1,66.7c24.2,10.1,57.3,8.5,80.5-3.9
				c16.6-8.8,26-21.9,26.4-37c-0.3-8.8-2-17.5-5.2-25.8c-3.6-11.2-6.9-21.8-3.8-32.4c4.6-15.9,20.7-24.7,37.8-34
				c13-7.1,26.4-14.4,34.6-25.2c15.2-19.8,10-44.8,4.9-69c-0.6-2.6-1.1-5.2-1.6-7.7c-2.6-12.6-8.3-54.8,23.7-68.5s66.4,15.3,86,44.4
				c22,32.5,43.9,49.2,66.7,50.8c19.5,1.4,39.6-8.6,59.8-29.6c47.2-49,92.7-66,162-60.3c15.5,1.2,30.5,3.6,45,5.9
				c31.5,4.9,61.3,9.6,95.2,3.5l1-0.2c33.9-6.4,65.7-17,96.5-27.2c46.7-15.6,95-31.7,150.4-32.3c9,0,18.1,0,27,0.3
				c21.2,0.5,43.2,1,64.3-2.7c27.2-4.7,59.8-19.5,69.5-46.9c6.7-19,0.6-39.1-5.3-58.6C1439.1,312.5,1432.8,291.8,1441,272.8z"/>
			<g>
				<path class="st2" d="M1457,628.4c-10.9,3.3-22.3,6.5-33.9,9.9c-57,16.4-121.6,34.9-161.1,64.7c-12.1,9.1-21.6,20.8-30.7,32.1
					c-18.6,23-36.3,44.6-73.7,44.2c-44.1-0.5-83.9-20.6-122.5-40.1l-9.1-4.6c-41.1-20.6-89.5-40.5-137-31.9h-0.4
					c-39.7,7.4-46.1,26.7-52.8,47.3c-3.8,11.7-7.8,23.9-18.4,34.7c-9.1,9.4-23.1,14.2-36.7,18.9c-16.4,5.7-33.4,11.5-42.7,25.5
					c-6.4,10.1-12.2,20.4-17.3,31.1c-0.3,0.6-0.6,1.2-0.9,1.8h4.4l0.2-0.4c5-10.5,10.7-20.8,17.1-30.7c8.6-12.9,24.2-18.3,40.8-24
					c14-4.8,28.3-9.9,38.3-19.9c11.1-11.4,15.1-23.9,19.1-35.9c6.7-20.3,12.6-37.9,49.8-44.8c46.4-8.5,94,11,134.6,31.4l9.1,4.6
					c39.1,19.7,79.5,40.1,124.5,40.6c39.6,0.4,58.6-23,77-45.7c9-11.1,18.3-22.6,30-31.5c38.9-29.4,103.1-47.8,159.8-64
					c11.2-3.2,22-6.4,32.7-9.5v-3.8H1457z"/>
				<path class="st2" d="M64.6,862h5.9C42.7,841.4,18.9,817.1,0,790v6.1C17.8,820.6,39.6,842.8,64.6,862z"/>
				<path class="st2" d="M729.4,138.3c11.1,3.6,23.2,4.4,34.8,2.3c11-1.8,20.9-6.9,28-14.4c4.5-5.4,8.2-11.3,10.9-17.5
					c2.2-4.7,4.8-9.3,7.8-13.7c15.4-20.6,45.6-26.3,74.8-31.8c6-1.1,11.8-2.2,17.5-3.5c17.5-3.7,27-11.2,37.1-19.2
					c5.8-4.9,12.1-9.2,18.9-13c21.5-11.5,32.3-11.6,57.4-8.8c32.8,3.5,75.6,4.4,105.9-18.7h-5.9c-22.4,15.3-54.6,20.1-99.5,15.3
					c-25.6-2.7-37.4-2.7-60,9.3c-7,3.9-13.6,8.4-19.6,13.5c-9.7,7.6-18.9,14.9-35.3,18.4c-5.7,1.2-11.5,2.3-17.4,3.4
					c-29.9,5.7-60.9,11.6-77.2,33.5c-3.1,4.5-5.9,9.2-8.1,14.1c-2.6,5.9-6.1,11.5-10.4,16.7c-14,15.2-39.9,17-58.3,11
					c-17.6-5.8-33.5-18.3-47.2-37.3C663.9,70.7,652.4,38.5,648.9,0h-4c3.5,39.1,15.2,72.1,35.2,99.6
					C694.3,119.2,710.9,132.2,729.4,138.3z"/>
				<path class="st2" d="M1441.9,273.1c3.5-7.6,8.6-14.5,15.1-20.4v-5.2c-8.1,6.9-14.5,15.2-18.9,24.3c-8.5,19.8-2.1,41,4.1,61.4
					c5.8,19.2,11.8,38.8,5.4,57.1c-9.2,26.3-40.9,40.6-67.2,45.1c-20.8,3.6-42.6,3.1-63.7,2.7c-8.9-0.2-18.1-0.4-27.1-0.3
					c-55.9,0.6-104.4,16.8-151.4,32.4c-30.6,10.2-62.3,20.8-96,27.1c-33.7,6.3-63.5,1.7-95-3.3c-14.5-2.3-29.6-4.6-45.2-5.9
					c-69.5-5.5-117.2,12.2-164.6,61.3c-19.7,20.4-39,30.1-57.4,28.7c-21.5-1.6-43.1-18.2-64.3-49.5c-20.2-30-55.9-60.1-89.9-45.5
					c-33.9,14.6-28,58.3-25.4,71.4c0.5,2.5,1,5.1,1.6,7.7c5,23.7,10.2,48.1-4.4,67c-8,10.4-21.1,17.6-33.8,24.5
					c-16.8,9.2-34.2,18.7-39.1,35.6c-3.1,11.4,0.3,22.8,3.8,33.8c3.1,8.1,4.8,16.5,5,25.1c-0.4,14.1-9.2,26.5-24.9,34.8
					c-22.4,11.9-54.3,13.5-77.6,3.8c-32.8-13.7-55.2-40.2-77-65.9c-5.2-6.2-10.6-12.5-16.1-18.6c-6.3-7-57-62-94.5-55.2
					c-4.4,0.8-8.5,2.4-12.1,4.8c-10.3,6.7-12.2,18.7-14,30.3c-3.1,19.2-5.9,37.4-44.1,34.1c-26.3-2.3-50.4-20.9-59.8-46.4
					C-3,626.3,19,584.6,40.3,544.3c4.4-8.4,9.1-17.1,13.1-25.5c15.7-32.9,37-95,1.4-142.5c-10.9-14.2-25.7-25.7-40-36.7
					c-5-3.8-10-7.7-14.9-11.8v4.8c4.1,3.3,8.2,6.5,12.3,9.6c14.1,11,28.7,22.1,39.1,35.9c34.6,46.1,13.7,106.8-1.8,139.2
					c-4,8.4-8.4,16.7-13.1,25.4C14.9,584-7.4,626.3,9.4,671.2C19.5,698,45,717.6,72.9,719.9c42,3.6,45.4-18,48.4-37.1
					c1.8-11.4,3.5-22.2,12.4-28c28.1-18.4,76.8,22.6,101,49.8c5.4,6,10.8,12.4,16,18.5c22,26,44.9,52.9,78.5,67
					c24.5,10.2,58,8.6,81.5-3.9c16.9-9,26.4-22.4,26.9-37.8c-0.3-8.9-2-17.7-5.2-26.1c-3.5-11.1-6.8-21.6-3.8-32
					c4.5-15.5,20.4-24.2,37.3-33.5c13-7.2,26.6-14.5,35-25.5c15.5-20.1,10.1-45.3,5-69.6c-0.5-2.6-1.1-5.1-1.6-7.6
					c-2.5-12.5-8.3-54.2,23.2-67.7c31.4-13.4,65.3,15.3,84.7,44c22.2,32.9,44.3,49.6,67.5,51.3c19.8,1.4,40.3-8.7,60.8-30
					c47-48.8,92.2-65.7,161.1-60.1c15.5,1.3,30.5,3.6,44.9,5.9c31.9,5,62,9.7,96.6,3.3c34-6.4,65.9-17,96.6-27.4
					c48.8-16.3,94.8-31.6,150-32.2c9,0,18.1,0,27,0.3c21.3,0.5,43.2,1,64.5-2.7c27.6-4.8,60.5-19.7,70.3-47.5
					c6.7-19.2,0.6-39.5-5.4-59.1C1439.8,311.5,1433.8,291.8,1441.9,273.1z"/>
				<path class="st2" d="M44.1,216.2C29,217.3,13.6,218.4,0,222v3.6c13.2-3.6,28.6-4.7,44.4-5.9c28.8-2,58.5-4.2,76-23
					c21.7-23.2,10-51.8-2.3-82.2C107.8,89.2,97.1,63,107.5,40c10.2-22.6,36.9-36,79.7-40h-23.7c-30.8,6.4-51,19.4-59.7,38.7
					c-10.9,24.2,0,51.1,10.5,77.1c11.9,29.3,23.2,57,2.9,78.7C100.8,212.1,71.9,214.2,44.1,216.2z"/>
			</g>
		</g>
	</g>
</g>
</svg>
