<svg xmlns="http://www.w3.org/2000/svg" viewBox="0 0 245.15 48.03"><defs><style>.a{fill:#fff;}</style></defs><path class="a" d="M71.93,34.42V32.51a8.37,8.37,0,0,1-.84.62,13.58,13.58,0,0,1-6,1.57A12.06,12.06,0,0,1,52.77,22.48,12.16,12.16,0,0,1,65,10.27a12.51,12.51,0,0,1,8.63,3.3,11.67,11.67,0,0,1,3.64,9.08V34.42ZM65,29.54a6.82,6.82,0,0,0,6.89-7.06,6.89,6.89,0,1,0-13.78,0A6.82,6.82,0,0,0,65,29.54Z"/><path class="a" d="M213.7,5.67a3.33,3.33,0,1,0-4.71,0A3.34,3.34,0,0,0,213.7,5.67Z"/><path class="a" d="M201,33.59a3.32,3.32,0,1,0-4.7,0A3.34,3.34,0,0,0,201,33.59Z"/><path class="a" d="M244.19,9a3.33,3.33,0,1,0-4.71,0A3.34,3.34,0,0,0,244.19,9Z"/><polygon class="a" points="208.66 34.53 214.03 34.53 214.03 14.91 208.66 10.66 208.66 34.53"/><path class="a" d="M120,34.56h-5.38V21.67c0-3.81,1-6.61,3-8.46a10.59,10.59,0,0,1,14.35,0c2,1.85,3,4.71,3,8.46V34.56h-5.38V21.67c0-4-1.9-6.11-4.81-6.11S120,17.64,120,21.67Z"/><path class="a" d="M224.25,14.25a12.24,12.24,0,0,1,17.32,0,11.7,11.7,0,0,1,3.58,8.63,11.75,11.75,0,0,1-3.58,8.68,12.39,12.39,0,0,1-17.32,0,11.75,11.75,0,0,1-3.58-8.68A11.7,11.7,0,0,1,224.25,14.25Zm1.8,8.63a7.07,7.07,0,0,0,2,5.1,6.88,6.88,0,0,0,4.93,2,6.66,6.66,0,0,0,4.87-2,6.88,6.88,0,0,0,2-5.1,6.66,6.66,0,0,0-2-5.05,6.47,6.47,0,0,0-4.87-2,6.68,6.68,0,0,0-4.93,2A6.84,6.84,0,0,0,226.05,22.88Z"/><path class="a" d="M89.7,32.63V48l-5.37-3.54V22.76A11.63,11.63,0,0,1,88,13.69a12.47,12.47,0,0,1,8.63-3.31A11.67,11.67,0,0,1,105.28,14a11.71,11.71,0,0,1,3.59,8.63A12.06,12.06,0,0,1,96.6,34.81a11.67,11.67,0,0,1-6.11-1.62Zm6.9-17.09a6.79,6.79,0,0,0-6.9,7.06,6.9,6.9,0,1,0,13.79,0A6.86,6.86,0,0,0,96.6,15.54Z"/><path class="a" d="M7,33.81a14,14,0,0,1-5.83-1.29l-.84-.45V26.86A12.61,12.61,0,0,0,7,28.66c2.18,0,3.25-.73,3.25-2.25,0-3.69-10.2-2.35-10.2-10,0-4.31,3.53-7,8.4-7a13.41,13.41,0,0,1,5.5,1.12l.67.39v5A12.69,12.69,0,0,0,8.4,14.54c-2,0-3,.61-3,1.84S7,18.35,9,19.07c2.92.84,6.67,2.64,6.62,7.34C15.58,31,12.16,33.81,7,33.81Z"/><path class="a" d="M34.72,18.46,32.2,30.17c-.56,2.41-1.8,3.64-3.65,3.64-1.51,0-2.63-1.18-3.25-3.53L19.87,9.66h5.21l3.53,14.9L31.3,12.63c.5-2.19,1.62-3.25,3.42-3.25s2.91,1.06,3.41,3.25l2.75,11.93,3.53-14.9h5.21L44.13,30.28q-.93,3.53-3.19,3.53c-2.08,0-3.14-1.23-3.65-3.64Z"/><path class="a" d="M168.5,34.53l7.11-12.16-6.83-11.71h5.94l3.86,6.61,3.87-6.61h5.77l-6.72,11.6,7.17,12.27h-5.94l-4.2-7.17-4.26,7.17Z"/><path class="a" d="M159.8,25h0l-.3.83a7,7,0,0,1-12.06.43l17.76-4.73c-.48-2.25-1-7.1-6.19-10a11.52,11.52,0,0,0-8.91-1,11.76,11.76,0,0,0-7.47,5.7,11.73,11.73,0,0,0-1.25,9.26,12,12,0,0,0,14.94,8.67,12.71,12.71,0,0,0,6.88-4.67,14.9,14.9,0,0,0,1.44-2.88c.25-.7.41-1.21.51-1.61Zm-13.55-3.41a6.44,6.44,0,0,1,5.15-6.13c3.2-.85,6.36.57,7.41,2.79Z"/><path class="a" d="M233.45,42.15A21.38,21.38,0,0,1,221,37.85L224.15,34a16.46,16.46,0,0,0,9.3,3.19c4.48,0,8.4-3.15,8.44-3.18l3.17,3.87C244.85,38,239.75,42.15,233.45,42.15Z"/></svg>